<?xml version="1.0" encoding="UTF-8"?>
<svg width="101px" height="50px" viewBox="0 0 101 50" version="1.1" xmlns="http://www.w3.org/2000/svg" xmlns:xlink="http://www.w3.org/1999/xlink">
    <!-- Generator: Sketch 43.1 (39012) - http://www.bohemiancoding.com/sketch -->
    <title>Logo</title>
    <desc>Created with Sketch.</desc>
    <defs></defs>
    <g id="Page-1" stroke="none" stroke-width="1" fill="none" fill-rule="evenodd">
        <g id="Desktop-HD" transform="translate(-379.000000, -31.000000)" fill="#DC3F3F">
            <g id="Group" transform="translate(-2.000000, 31.000000)">
                <g id="Header" transform="translate(381.000000, 0.000000)">
                    <g id="Logo">
                        <path d="M6.83398003,0.594140625 L11.5626031,0.594140625 C13.6172227,0.594140625 15.1833431,0.936572096 16.2610113,1.62144531 C17.1473178,2.17538688 17.8422523,2.95592921 18.3458355,3.9630957 C18.8494187,5.00047719 19.1012066,6.09323645 19.1012066,7.24140625 C19.1012066,8.91330263 18.6328812,10.3837437 17.6962164,11.6527734 C16.3063266,13.5361748 14.1157723,14.4778613 11.1244878,14.4778613 L8.57133354,14.4778613 L7.40806206,23.92 L3.94846245,23.92 L6.83398003,0.594140625 Z M9.88567925,3.81202148 L8.94901909,11.4110547 L11.200025,11.4110547 C12.6201297,11.4110547 13.7103711,11.0459623 14.4707818,10.3157666 C15.2311925,9.58557089 15.6113921,8.53057982 15.6113921,7.15076172 C15.6113921,4.92492377 14.1913087,3.81202148 11.3510992,3.81202148 L9.88567925,3.81202148 Z M36.4596343,16.6684375 C36.4596343,18.8439171 35.7042708,20.6718969 34.193521,22.1524316 C32.692843,23.6329664 30.8396844,24.3732227 28.6339898,24.3732227 C26.3275785,24.3732227 24.4442054,23.6732524 22.983814,22.273291 C21.5133509,20.8632579 20.7781304,19.0806 20.7781304,16.9252637 C20.7781304,14.719569 21.5385297,12.8865535 23.0593511,11.4261621 C24.5902442,9.95569903 26.5038318,9.22047852 28.8001714,9.22047852 C31.0562244,9.22047852 32.8942757,9.91541297 34.3143804,11.3053027 C35.7445568,12.6750492 36.4596343,14.4627429 36.4596343,16.6684375 Z M33.0906792,16.5022559 C33.0906792,15.1325094 32.6928544,14.0498217 31.8971929,13.2541602 C31.1015314,12.4282836 30.0591297,12.0153516 28.7699566,12.0153516 C27.4304252,12.0153516 26.3225586,12.4736054 25.4463238,13.390127 C24.5700889,14.3167201 24.1319781,15.47998 24.1319781,16.8799414 C24.1319781,18.2899745 24.5449101,19.4230198 25.3707867,20.2791113 C26.1966632,21.1553462 27.2642437,21.593457 28.5735601,21.593457 C29.8828765,21.593457 30.9605285,21.1150601 31.8065484,20.158252 C32.6626399,19.2115154 33.0906792,17.9928623 33.0906792,16.5022559 Z M49.5879839,11.2599805 L47.6995562,13.1484082 C46.8132497,12.3527467 45.9924213,11.9549219 45.2370464,11.9549219 C44.7233915,11.9549219 44.2978701,12.0984409 43.9604693,12.3854834 C43.6230685,12.6725258 43.4543707,13.0275467 43.4543707,13.4505566 C43.4543707,13.8634949 43.5953718,14.2109621 43.8773785,14.4929687 C44.1593851,14.785047 44.7485686,15.1778361 45.6449468,15.6713477 C46.9240483,16.3864359 47.780127,17.0410843 48.2132085,17.6353125 C48.6765051,18.2194691 48.90815,18.9798684 48.90815,19.9165332 C48.90815,21.2661363 48.4398246,22.348824 47.5031597,23.1646289 C46.5463515,23.9703621 45.3025196,24.3732227 43.7716265,24.3732227 C41.6867919,24.3732227 39.9595272,23.4315361 38.5897808,21.5481348 L40.780357,20.0222852 C41.6767352,21.0999533 42.633529,21.6387793 43.6507671,21.6387793 C44.224852,21.6387793 44.6856238,21.4877066 45.0330962,21.1855566 C45.3805687,20.8834067 45.5543023,20.4906177 45.5543023,20.0071777 C45.5543023,19.5841678 45.4082653,19.2417363 45.1161871,18.979873 C44.9751838,18.8489414 44.7284317,18.6676542 44.3759234,18.4360059 C44.0234151,18.2043576 43.5450182,17.9273909 42.9407183,17.6050977 C41.8731218,17.0108694 41.1328656,16.4317574 40.7199273,15.8677441 C40.306989,15.2735159 40.100523,14.5483669 40.100523,13.6922754 C40.100523,12.4031023 40.5738841,11.3355218 41.5206207,10.489502 C42.4673572,9.6434821 43.6709031,9.22047852 45.1312945,9.22047852 C46.7427609,9.22047852 48.2283092,9.9003057 49.5879839,11.2599805 Z M56.7942242,12.7858301 L55.4194488,23.92 L52.0807085,23.92 L53.4554839,12.7858301 L51.5670562,12.7858301 L51.9447417,9.68880859 L53.8331695,9.68880859 L54.6489703,3.08686523 L57.9877105,3.08686523 L57.1719097,9.68880859 L60.2538238,9.68880859 L59.8761382,12.7858301 L56.7942242,12.7858301 Z" id="Post"></path>
                        <path d="M15.6937012,25.7422888 L15.3009082,28.9601696 L6.735,28.9601696 L5.99473633,35.0031384 L14.5606445,35.0031384 L14.1980664,37.9944079 L5.6321582,37.9944079 L4.6652832,45.8502673 L13.2311914,45.8502673 L12.823291,49.0681481 L0.812890625,49.0681481 L3.68330078,25.7422888 L15.6937012,25.7422888 Z M21.8877441,34.8369567 L21.7366699,36.1513024 C23.056058,35.0434193 24.3905336,34.489486 25.7401367,34.489486 C27.1300265,34.489486 28.2429288,34.8772393 29.078877,35.6527575 C29.8946818,36.4282757 30.3025781,37.4857847 30.3025781,38.8253161 C30.3025781,39.550476 30.242149,40.4166262 30.1212891,41.4237927 L29.1695215,49.0681481 L25.8458887,49.0681481 L26.8731934,40.6986364 C26.91348,40.3864148 26.9411767,40.1094482 26.9562842,39.8677282 C26.9713917,39.6260083 26.9789453,39.4094707 26.9789453,39.2181091 C26.9789453,37.928936 26.2840109,37.2843591 24.8941211,37.2843591 C24.0380296,37.2843591 23.3028091,37.5462184 22.6884375,38.069945 C22.1848543,38.4828833 21.8122082,38.986459 21.5704883,39.5806872 C21.4395566,39.8828372 21.32877,40.2529653 21.238125,40.6910827 C21.14748,41.1292001 21.0669079,41.6352937 20.9964063,42.2093786 L20.1503906,49.0681481 L16.8116504,49.0681481 L18.5641113,34.8369567 L21.8877441,34.8369567 Z M38.928916,34.8369567 L38.7778418,36.0606579 C39.9058683,34.9930614 41.0439493,34.4592712 42.1921191,34.4592712 C43.1992856,34.4592712 44.1157934,34.8268815 44.9416699,35.562113 L42.8115234,38.3116638 C42.1971519,37.7879372 41.5827895,37.5260778 40.968418,37.5260778 C40.545408,37.5260778 40.172762,37.6091678 39.8504688,37.7753503 C39.5281755,37.9415328 39.248691,38.2033921 39.0120068,38.5609362 C38.7753227,38.9184803 38.5789282,39.3792521 38.4228174,39.9432653 C38.2667066,40.5072786 38.1433305,41.18207 38.0526855,41.9676599 L37.1764551,49.0681481 L33.8377148,49.0681481 L35.5901758,34.8369567 L38.928916,34.8369567 Z M61.3785449,41.8165856 C61.3785449,43.9920653 60.6231814,45.820045 59.1124316,47.3005798 C57.6117536,48.7811145 55.758595,49.5213708 53.5529004,49.5213708 C51.2464891,49.5213708 49.363116,48.8214006 47.9027246,47.4214392 C46.4322615,46.0114061 45.697041,44.2287481 45.697041,42.0734118 C45.697041,39.8677172 46.4574403,38.0347017 47.9782617,36.5743103 C49.5091548,35.1038472 51.4227424,34.3686267 53.719082,34.3686267 C55.975135,34.3686267 57.8131863,35.0635611 59.233291,36.4534509 C60.6634674,37.8231973 61.3785449,39.610891 61.3785449,41.8165856 Z M58.0095898,41.650404 C58.0095898,40.2806576 57.611765,39.1979698 56.8161035,38.4023083 C56.020442,37.5764318 54.9780403,37.1634997 53.6888672,37.1634997 C52.3493358,37.1634997 51.2414692,37.6217536 50.3652344,38.5382751 C49.4889995,39.4648683 49.0508887,40.6281281 49.0508887,42.0280896 C49.0508887,43.4381226 49.4638207,44.571168 50.2896973,45.4272595 C51.1155738,46.3034943 52.1831543,46.7416052 53.4924707,46.7416052 C54.8017871,46.7416052 55.8794391,46.2632083 56.725459,45.3064001 C57.5815505,44.3596636 58.0095898,43.1410104 58.0095898,41.650404 Z M70.7451465,23.5517126 L67.6179102,49.0681481 L64.2791699,49.0681481 L67.4215137,23.5517126 L70.7451465,23.5517126 Z M78.7520801,23.5517126 L75.6248438,49.0681481 L72.2861035,49.0681481 L75.4284473,23.5517126 L78.7520801,23.5517126 Z" id="Enroll"></path>
                        <path d="M80.9945046,36.7801023 C91.8620044,30.2516004 100.988168,12.7781592 72.8880353,15.7339636 L72.8880353,20.8948144 L63.337402,10.8483796 L72.8880353,1.55555556 C72.8880353,1.55555556 72.8880353,4.53669556 72.8880353,6.62832755 C93.8066414,1.55555556 119.114137,19.9798607 80.9945046,36.7801023 Z" id="Path"></path>
                    </g>
                </g>
            </g>
        </g>
    </g>
</svg>