<?xml version="1.0" encoding="UTF-8"?>
<svg width="558px" height="170px" viewBox="0 0 558 170" version="1.1" xmlns="http://www.w3.org/2000/svg" xmlns:xlink="http://www.w3.org/1999/xlink">
    <!-- Generator: Sketch 43.1 (39012) - http://www.bohemiancoding.com/sketch -->
    <title>Pattern@1x</title>
    <desc>Created with Sketch.</desc>
    <defs></defs>
    <g id="Page-1" stroke="none" stroke-width="1" fill="none" fill-rule="evenodd">
        <g id="Pattern">
            <rect id="Rectangle" x="-16" y="-9" width="586" height="194"></rect>
            <g id="Rohith" opacity="0.1" transform="translate(15.000000, 13.000000)" fill-rule="nonzero" fill="#000000">
                <g id="noun_776662_cc" transform="translate(187.454545, 3.000000)">
                    <path d="M59.3333333,23.5 L51.1666667,9.58333333 L56.5833333,1.83333333 C56.75,1.58333333 56.75,1.25 56.5833333,0.916666667 C56.4166667,0.666666667 56.0833333,0.5 55.75,0.5 L21.1666667,4.16666667 C20.9166667,4.16666667 20.75,4.33333333 20.5833333,4.5 L0.666666667,33.1666667 C0.5,33.4166667 0.5,33.75 0.666666667,34.0833333 C0.833333333,34.3333333 1.08333333,34.5 1.41666667,34.5 L1.5,34.5 L11,33.5 L19.1666667,47.3333333 C19.25,47.5 19.3333333,47.5833333 19.5,47.6666667 C19.5833333,47.75 20.4166667,48.0833333 22.1666667,48.0833333 C25.3333333,48.0833333 31.5,46.9166667 42.0833333,40.6666667 L42.5,40.4166667 C47.0833333,37.75 50.8333333,35.0833333 53.6666667,32.5 L54.5833333,34.5833333 C54.6666667,34.8333333 54.8333333,35 55.0833333,35.0833333 C55.1666667,35.0833333 55.25,35.1666667 55.3333333,35.1666667 C55.5,35.1666667 55.6666667,35.1666667 55.75,35.0833333 L59,33.1666667 C59.1666667,33.0833333 59.3333333,32.8333333 59.4166667,32.5833333 C59.5,32.3333333 59.4166667,32.0833333 59.25,31.9166667 L57.0833333,29.0833333 C59.5,26.0833333 59.6666667,24.3333333 59.6666667,24.0833333 C59.5,23.8333333 59.4166667,23.6666667 59.3333333,23.5 Z M21.75,5.91666667 L54.1666667,2.5 L45.8333333,14.4166667 L28.8333333,15.8333333 C28.4166667,15.8333333 28,16.25 28.0833333,16.75 C28.1666667,17.25 28.5,17.5833333 29,17.5 L44.5833333,16.1666667 L35.5,29.1666667 L3.08333333,32.5833333 L21.75,5.91666667 Z M41.5833333,38.9166667 L41.1666667,39.1666667 C27.1666667,47.4166667 21.4166667,46.5 20.3333333,46.1666667 L12.75,33.25 L36,30.8333333 C36.25,30.8333333 36.4166667,30.6666667 36.5833333,30.5 L46.0833333,16.9166667 L49.5833333,22.8333333 C49.1666667,23.25 48.8333333,23.8333333 48.6666667,24.4166667 C48.4166667,25.3333333 48.5833333,26.25 49,27.0833333 C49.5,27.9166667 50.25,28.4166667 51.0833333,28.6666667 C51.3333333,28.75 51.6666667,28.75 52,28.75 L52,28.75 L52.8333333,30.75 C50.0833333,33.4166667 46.25,36.1666667 41.5833333,38.9166667 Z M52.9166667,26.8333333 C52.5,27.0833333 52,27.1666667 51.5833333,27 C51.0833333,26.9166667 50.75,26.5833333 50.5,26.1666667 C50.25,25.75 50.1666667,25.25 50.3333333,24.8333333 C50.4166667,24.3333333 50.75,24 51.1666667,23.75 C51.4166667,23.5833333 51.75,23.5 52.0833333,23.5 C52.6666667,23.5 53.3333333,23.8333333 53.6666667,24.4166667 C54.0833333,25.25 53.8333333,26.3333333 52.9166667,26.8333333 Z M55.6666667,33 L53.6666667,28.3333333 C53.6666667,28.3333333 53.75,28.3333333 53.75,28.25 C53.8333333,28.1666667 54,28.0833333 54.0833333,28 L55,29.25 C55.0833333,29.3333333 55.0833333,29.5 55.25,29.5833333 L55.3333333,29.5833333 L57.25,32 L55.6666667,33 Z M55.8333333,27.5833333 L55.1666667,26.75 C55.5833333,25.75 55.5833333,24.5833333 55,23.5833333 C54.1666667,22.1666667 52.5,21.5833333 51,22 L47.0833333,15.4166667 L50.0833333,11.1666667 L57.75,24.1666667 C57.6666667,24.5833333 57.25,25.75 55.8333333,27.5833333 Z" id="Shape"></path>
                    <path d="M46.0833333,45 C45.5833333,45 45.25,45.3333333 45.25,45.8333333 L45.25,54.4166667 C45.25,54.9166667 45.5833333,55.25 46.0833333,55.25 C46.5833333,55.25 46.9166667,54.9166667 46.9166667,54.4166667 L46.9166667,45.8333333 C46.9166667,45.4166667 46.5833333,45 46.0833333,45 Z" id="Shape"></path>
                    <path d="M50.5833333,45.3333333 C50.0833333,45.3333333 49.75,45.6666667 49.75,46.1666667 L49.75,56.1666667 C49.75,56.6666667 50.0833333,57 50.5833333,57 C51.0833333,57 51.4166667,56.6666667 51.4166667,56.1666667 L51.4166667,46.1666667 C51.4166667,45.6666667 51,45.3333333 50.5833333,45.3333333 Z" id="Shape"></path>
                    <path d="M54.75,38.9166667 C54.25,38.9166667 53.9166667,39.25 53.9166667,39.75 L53.9166667,50.8333333 C53.9166667,51.3333333 54.25,51.6666667 54.75,51.6666667 C55.25,51.6666667 55.5833333,51.3333333 55.5833333,50.8333333 L55.5833333,39.75 C55.5833333,39.3333333 55.1666667,38.9166667 54.75,38.9166667 Z" id="Shape"></path>
                    <path d="M23.9166667,52 C23.4166667,52 23.0833333,52.3333333 23.0833333,52.8333333 L23.0833333,60.3333333 C23.0833333,60.8333333 23.4166667,61.1666667 23.9166667,61.1666667 C24.4166667,61.1666667 24.75,60.8333333 24.75,60.3333333 L24.75,52.8333333 C24.75,52.3333333 24.3333333,52 23.9166667,52 Z" id="Shape"></path>
                    <path d="M46.0833333,56.5 C45.5833333,56.5 45.25,56.8333333 45.25,57.3333333 L45.25,60.3333333 C45.25,60.8333333 45.5833333,61.1666667 46.0833333,61.1666667 C46.5833333,61.1666667 46.9166667,60.8333333 46.9166667,60.3333333 L46.9166667,57.3333333 C46.9166667,56.9166667 46.5,56.5 46.0833333,56.5 Z" id="Shape"></path>
                    <path d="M54.5833333,53.1666667 C54.0833333,53.1666667 53.75,53.5 53.75,54 L53.75,57 C53.75,57.5 54.0833333,57.8333333 54.5833333,57.8333333 C55.0833333,57.8333333 55.4166667,57.5 55.4166667,57 L55.4166667,54 C55.4166667,53.5833333 55.0833333,53.1666667 54.5833333,53.1666667 Z" id="Shape"></path>
                    <path d="M20.3333333,51.0833333 C19.8333333,51.0833333 19.5,51.4166667 19.5,51.9166667 L19.5,54.9166667 C19.5,55.4166667 19.8333333,55.75 20.3333333,55.75 C20.8333333,55.75 21.1666667,55.4166667 21.1666667,54.9166667 L21.1666667,51.9166667 C21.1666667,51.5 20.8333333,51.0833333 20.3333333,51.0833333 Z" id="Shape"></path>
                </g>
                <g id="School-Building" transform="translate(0.000000, 9.000000)">
                    <path d="M16.5753333,14.3413333 C17.1073333,14.3413333 17.624,14.1853333 18.0666667,13.8886667 L30,5.932 L41.9333333,13.8893333 C42.376,14.184 42.892,14.34 43.4253333,14.34 C44.3286667,14.34 45.168,13.892 45.6706667,13.1393333 C46.4933333,11.9033333 46.1566667,10.2273333 44.922,9.40266667 L31.4953333,0.450666667 C30.6073333,-0.142666667 29.3906667,-0.142 28.504,0.45 L15.076,9.40266667 C13.84,10.228 13.5053333,11.9053333 14.3293333,13.14 C14.8306667,13.8926667 15.6706667,14.3413333 16.5753333,14.3413333 Z M16.0806667,10.908 L29.5093333,1.95533333 C29.6553333,1.858 29.8246667,1.80733333 30,1.80733333 C30.1753333,1.80733333 30.3453333,1.858 30.4906667,1.956 L43.9186667,10.908 C44.324,11.1793333 44.4346667,11.73 44.166,12.1346667 C43.9033333,12.528 43.3266667,12.642 42.936,12.382 L30.8726667,4.33866667 C30.6266667,4.17533333 30.3173333,4.08533333 30,4.08533333 C29.6826667,4.08533333 29.3746667,4.17533333 29.126,4.33933333 L17.0626667,12.3826667 C16.6673333,12.6446667 16.0973333,12.5273333 15.836,12.1353333 C15.5653333,11.73 15.676,11.18 16.0806667,10.908 Z" id="Shape"></path>
                    <path d="M58.6473333,26.4706667 L42.0953333,26.4706667 L42.0953333,16.468 C42.0953333,16.1653333 41.9433333,15.8826667 41.6926667,15.7146667 L30.8753333,8.50333333 C30.3826667,8.174 29.6173333,8.17466667 29.1266667,8.50266667 L18.3086667,15.7146667 C18.0566667,15.8826667 17.9053333,16.1653333 17.9053333,16.468 L17.9053333,26.4706667 L1.35333333,26.4706667 C0.607333333,26.4706667 0,27.0773333 0,27.8226667 L0,49.308 C0,50.0533333 0.607333333,50.66 1.35333333,50.66 L26.0906667,50.66 C26.5906667,50.66 26.996,50.2553333 26.996,49.7553333 L26.996,41.7086667 L33.0026667,41.7086667 L33.0026667,49.7553333 C33.0026667,50.2553333 33.4073333,50.66 33.9073333,50.66 L58.6466667,50.66 C59.392,50.66 59.9993333,50.0533333 59.9993333,49.308 L59.9993333,27.8226667 C60,27.0773333 59.3926667,26.4706667 58.6473333,26.4706667 Z M58.1893333,48.8486667 L34.8153333,48.8486667 L34.8153333,40.8033333 C34.8153333,40.3026667 34.4093333,39.8986667 33.9093333,39.8986667 L26.0913333,39.8986667 C25.5913333,39.8986667 25.186,40.3026667 25.186,40.8033333 L25.186,48.8486667 L1.81066667,48.8486667 L1.81066667,28.2813333 L18.8106667,28.2813333 C19.3106667,28.2813333 19.716,27.8766667 19.716,27.3766667 L19.716,16.9526667 L30,10.096 L40.284,16.9526667 L40.284,27.376 C40.284,27.876 40.6893333,28.2806667 41.1893333,28.2806667 L58.1893333,28.2806667 L58.1893333,48.8486667 Z" id="Shape"></path>
                    <path d="M9.85866667,40.156 L5.38133333,40.156 C5.024,40.156 4.73466667,40.446 4.73466667,40.8033333 L4.73466667,45.28 C4.73466667,45.6366667 5.024,45.9273333 5.38133333,45.9273333 L9.85866667,45.9273333 C10.216,45.9273333 10.5053333,45.6366667 10.5053333,45.28 L10.5053333,40.8033333 C10.5053333,40.446 10.216,40.156 9.85866667,40.156 Z M9.212,44.6326667 L6.028,44.6326667 L6.028,41.45 L9.212,41.45 L9.212,44.6326667 Z" id="Shape"></path>
                    <path d="M9.85866667,31.2046667 L5.38133333,31.2046667 C5.024,31.2046667 4.73466667,31.4953333 4.73466667,31.852 L4.73466667,36.3286667 C4.73466667,36.6853333 5.024,36.976 5.38133333,36.976 L9.85866667,36.976 C10.216,36.976 10.5053333,36.6853333 10.5053333,36.3286667 L10.5053333,31.852 C10.5053333,31.494 10.216,31.2046667 9.85866667,31.2046667 Z M9.212,35.6806667 L6.028,35.6806667 L6.028,32.498 L9.212,32.498 L9.212,35.6806667 Z" id="Shape"></path>
                    <path d="M18.8106667,40.156 L14.3346667,40.156 C13.9773333,40.156 13.688,40.446 13.688,40.8033333 L13.688,45.28 C13.688,45.6366667 13.9773333,45.9273333 14.3346667,45.9273333 L18.8106667,45.9273333 C19.168,45.9273333 19.4573333,45.6366667 19.4573333,45.28 L19.4573333,40.8033333 C19.4573333,40.446 19.168,40.156 18.8106667,40.156 Z M18.164,44.6326667 L14.9813333,44.6326667 L14.9813333,41.45 L18.164,41.45 L18.164,44.6326667 Z" id="Shape"></path>
                    <path d="M18.8106667,31.2046667 L14.3346667,31.2046667 C13.9773333,31.2046667 13.688,31.4953333 13.688,31.852 L13.688,36.3286667 C13.688,36.6853333 13.9773333,36.976 14.3346667,36.976 L18.8106667,36.976 C19.168,36.976 19.4573333,36.6853333 19.4573333,36.3286667 L19.4573333,31.852 C19.4573333,31.494 19.168,31.2046667 18.8106667,31.2046667 Z M18.164,35.6806667 L14.9813333,35.6806667 L14.9813333,32.498 L18.164,32.498 L18.164,35.6806667 Z" id="Shape"></path>
                    <path d="M27.7626667,31.2046667 L23.2866667,31.2046667 C22.9293333,31.2046667 22.64,31.4953333 22.64,31.852 L22.64,36.3286667 C22.64,36.6853333 22.9293333,36.976 23.2866667,36.976 L27.7626667,36.976 C28.12,36.976 28.4093333,36.6853333 28.4093333,36.3286667 L28.4093333,31.852 C28.4086667,31.494 28.12,31.2046667 27.7626667,31.2046667 Z M27.116,35.6806667 L23.9333333,35.6806667 L23.9333333,32.498 L27.116,32.498 L27.116,35.6806667 Z" id="Shape"></path>
                    <path d="M35.4953333,20 C35.4953333,16.9686667 33.03,14.5033333 30,14.5033333 C26.97,14.5033333 24.5046667,16.9686667 24.5046667,20 C24.5046667,23.03 26.97,25.4953333 30,25.4953333 C33.03,25.4953333 35.4953333,23.03 35.4953333,20 Z M30,24.2026667 C27.6826667,24.2026667 25.7973333,22.3173333 25.7973333,20 C25.7973333,17.682 27.6826667,15.796 30,15.796 C32.318,15.796 34.2033333,17.682 34.2033333,20 C34.2033333,22.3173333 32.318,24.2026667 30,24.2026667 Z" id="Shape"></path>
                    <path d="M36.7133333,31.2046667 L32.2366667,31.2046667 C31.88,31.2046667 31.5906667,31.4953333 31.5906667,31.852 L31.5906667,36.3286667 C31.5906667,36.6853333 31.88,36.976 32.2366667,36.976 L36.7133333,36.976 C37.07,36.976 37.36,36.6853333 37.36,36.3286667 L37.36,31.852 C37.36,31.494 37.07,31.2046667 36.7133333,31.2046667 Z M36.068,35.6806667 L32.8853333,35.6806667 L32.8853333,32.498 L36.068,32.498 L36.068,35.6806667 Z" id="Shape"></path>
                    <path d="M45.6653333,40.156 L41.1893333,40.156 C40.832,40.156 40.5426667,40.446 40.5426667,40.8033333 L40.5426667,45.28 C40.5426667,45.6366667 40.832,45.9273333 41.1893333,45.9273333 L45.6653333,45.9273333 C46.0226667,45.9273333 46.312,45.6366667 46.312,45.28 L46.312,40.8033333 C46.312,40.446 46.0226667,40.156 45.6653333,40.156 Z M45.018,44.6326667 L41.836,44.6326667 L41.836,41.45 L45.018,41.45 L45.018,44.6326667 Z" id="Shape"></path>
                    <path d="M40.5426667,31.85 L40.5426667,36.3273333 C40.5426667,36.6846667 40.832,36.9746667 41.1893333,36.9746667 L45.6653333,36.9746667 C46.0226667,36.9746667 46.312,36.6846667 46.312,36.3273333 L46.312,31.85 C46.312,31.494 46.0226667,31.204 45.6653333,31.204 L41.1893333,31.204 C40.832,31.2046667 40.5426667,31.494 40.5426667,31.85 Z M41.836,32.498 L45.018,32.498 L45.018,35.6806667 L41.836,35.6806667 L41.836,32.498 Z" id="Shape"></path>
                    <path d="M50.1413333,45.9273333 L54.6186667,45.9273333 C54.976,45.9273333 55.266,45.6366667 55.266,45.28 L55.266,40.8033333 C55.266,40.446 54.976,40.156 54.6186667,40.156 L50.1413333,40.156 C49.784,40.156 49.4946667,40.446 49.4946667,40.8033333 L49.4946667,45.28 C49.4946667,45.6366667 49.784,45.9273333 50.1413333,45.9273333 Z M50.788,41.45 L53.972,41.45 L53.972,44.6326667 L50.788,44.6326667 L50.788,41.45 Z" id="Shape"></path>
                    <path d="M50.1413333,36.9746667 L54.6186667,36.9746667 C54.976,36.9746667 55.266,36.6846667 55.266,36.3273333 L55.266,31.85 C55.266,31.494 54.976,31.204 54.6186667,31.204 L50.1413333,31.204 C49.784,31.204 49.4946667,31.494 49.4946667,31.85 L49.4946667,36.3273333 C49.4946667,36.6846667 49.784,36.9746667 50.1413333,36.9746667 Z M50.788,32.498 L53.972,32.498 L53.972,35.6806667 L50.788,35.6806667 L50.788,32.498 Z" id="Shape"></path>
                    <path d="M30.5166667,19.7653333 L30.5166667,17.5473333 C30.5166667,17.262 30.284,17.0306667 30,17.0306667 C29.716,17.0306667 29.4833333,17.2626667 29.4833333,17.5473333 L29.4833333,20 C29.4833333,20.1493333 29.5473333,20.2906667 29.6586667,20.3886667 L31.412,21.9286667 C31.51,22.0146667 31.632,22.0566667 31.7533333,22.0566667 C31.8973333,22.0566667 32.0406667,21.9966667 32.1426667,21.8806667 C32.3306667,21.666 32.31,21.3386667 32.0953333,21.15 L30.5166667,19.7653333 Z" id="Shape"></path>
                </g>
                <g id="Open-Book" transform="translate(93.727273, 12.000000)">
                    <path d="M30.7717021,39.6185106 L29.6342553,39.2565957 C29.58,39.2393617 24.3740426,37.6123404 17.1191489,37.6123404 C12.8495745,37.6123404 8.71659574,38.1682979 4.83638298,39.2655319 L3.72638298,39.5795745 L3.72638298,3.22595745 L4.19425532,2.98021277 C4.39531915,2.87617021 9.22531915,0.394468085 16.8491489,0.394468085 C21.306383,0.394468085 25.8051064,1.24978723 30.2112766,2.9393617 L30.7710638,3.15446809 L30.7710638,39.6185106 L30.7717021,39.6185106 Z M5.47531915,4.31170213 L5.47531915,37.2842553 C9.1812766,36.3408511 13.092766,35.862766 17.1197872,35.862766 C22.7112766,35.862766 27.0593617,36.7729787 29.0234043,37.2714894 L29.0234043,4.36085106 C24.9995745,2.88893617 20.9042553,2.14212766 16.8497872,2.14212766 C10.9914894,2.14276596 6.82404255,3.72319149 5.47531915,4.31170213 Z" id="Shape"></path>
                    <path d="M30,39.6204255 L30,3.15382979 L30.5432679,2.9387234 C34.7903556,1.24978723 39.1229634,0.393829787 43.4198865,0.393829787 C50.7684618,0.393829787 55.4240771,2.87361702 55.6178816,2.97957447 L56.0725532,3.22531915 L56.0725532,39.5789362 L54.9989377,39.2648936 C51.2625095,38.1676596 47.2781346,37.6117021 43.1596347,37.6117021 C36.1469873,37.6117021 31.1492916,39.2387234 31.0994561,39.2559574 L30,39.6204255 Z M42.2666897,35.8634043 C46.417197,35.8634043 50.4506219,36.3414894 54.2696149,37.2848936 L54.2696149,4.31170213 C52.879754,3.72255319 48.5819069,2.14276596 42.5449249,2.14276596 C38.3667914,2.14276596 34.1498496,2.88765957 30,4.36148936 L30,37.2721277 C32.0278945,36.7729787 36.5053118,35.8634043 42.2666897,35.8634043 Z" id="Shape"></path>
                    <polygon id="Shape" points="59.7204255 43.0104255 0.279574468 43.0104255 0.279574468 5.26340426 4.60085106 5.26340426 4.60085106 7.01234043 2.02851064 7.01234043 2.02851064 41.2614894 57.9708511 41.2614894 57.9708511 7.88170213 55.1980851 7.88170213 55.1980851 6.13276596 59.7204255 6.13276596"></polygon>
                    <rect id="Rectangle-path" x="29.0234043" y="38.2978723" width="1.74829787" height="3.19148936"></rect>
                </g>
                <g id="Book-Stack" transform="translate(374.909091, 0.000000)">
                    <path d="M43.6757143,34.6814286 L49.0635714,34.6814286 C49.655,34.6814286 50.135,34.2021429 50.135,33.61 C50.135,33.0178571 49.655,32.5385714 49.0635714,32.5385714 L43.6757143,32.5385714 C43.0842857,32.5385714 42.6042857,33.0178571 42.6042857,33.61 C42.6042857,34.2021429 43.0842857,34.6814286 43.6757143,34.6814286 Z" id="Shape"></path>
                    <path d="M18.9478571,46.045 L39.5107143,46.045 C40.1021429,46.045 40.5821429,45.565 40.5821429,44.9735714 C40.5821429,44.3814286 40.1021429,43.9021429 39.5107143,43.9021429 L18.9478571,43.9021429 C18.3564286,43.9021429 17.8764286,44.3814286 17.8764286,44.9735714 C17.8764286,45.565 18.3564286,46.045 18.9478571,46.045 Z" id="Shape"></path>
                    <path d="M9.42071429,43.9021429 L5.58142857,43.9021429 C4.98928571,43.9021429 4.51,44.3814286 4.51,44.9735714 C4.51,45.565 4.98928571,46.045 5.58142857,46.045 L9.42071429,46.045 C10.0121429,46.045 10.4921429,45.565 10.4921429,44.9735714 C10.4921429,44.3814286 10.0121429,43.9021429 9.42071429,43.9021429 Z" id="Shape"></path>
                    <path d="M49.0635714,55.0807143 L40.2442857,55.0807143 C39.6528571,55.0807143 39.1728571,55.56 39.1728571,56.1521429 C39.1728571,56.7435714 39.6528571,57.2235714 40.2442857,57.2235714 L49.0642857,57.2235714 C49.6557143,57.2235714 50.1357143,56.7435714 50.1357143,56.1521429 C50.135,55.56 49.6557143,55.0807143 49.0635714,55.0807143 Z" id="Shape"></path>
                    <path d="M58.2592857,60.6557143 L55.8892857,60.6557143 C54.4442857,57.2778571 54.4942857,54.3792857 56.0314286,51.62 L58.1685714,51.62 C58.76,51.62 59.24,51.1407143 59.24,50.5485714 C59.24,49.9571429 58.76,49.4771429 58.1685714,49.4771429 L48.7057143,49.4771429 L46.3342857,49.4771429 C44.8928571,46.1064286 44.9407143,43.2128571 46.4685714,40.4592857 L58.26,40.4592857 C58.8514286,40.4592857 59.3314286,39.9792857 59.3314286,39.3878571 C59.3314286,38.7957143 58.8514286,38.3164286 58.26,38.3164286 L55.9778571,38.3164286 C54.4807143,34.9342857 54.4614286,32.0342857 55.9192857,29.2807143 L58.1692857,29.2807143 C58.7607143,29.2807143 59.2407143,28.8014286 59.2407143,28.2092857 C59.2407143,27.6171429 58.7607143,27.1378571 58.1692857,27.1378571 L40.4871429,27.1378571 C43.4671429,23.9414286 46.0214286,17.335 46.0214286,14.7642857 C46.0214286,11.0528571 43.1128571,8.00571429 39.4307143,7.71785714 C39.65,7.45571429 39.8564286,7.18 40.0321429,6.87571429 C41.1214286,4.98785714 41.0871429,2.70642857 39.9428571,1.06285714 L39.6557143,0.649285714 L39.1535714,0.606428571 C37.1542857,0.432142857 35.1592857,1.55714286 34.0742857,3.43571429 C33.8535714,3.81785714 33.6921429,4.21785714 33.5635714,4.62357143 C32.6064286,3.45142857 31.2478571,2.36142857 29.4871429,1.35857143 C28.9721429,1.06642857 28.3178571,1.24571429 28.0257143,1.76 C27.7335714,2.27428571 27.9128571,2.92857143 28.4271429,3.22142857 C31.2507143,4.82785714 32.7735714,6.54357143 33.0642857,8.43714286 C32.72,8.36571429 32.3735714,8.265 32.0221429,8.13 C31.23,7.825 30.3928571,7.67071429 29.5357143,7.67071429 C25.75,7.67071429 22.67,10.715 22.67,14.4564286 C22.67,15.5121429 24.4964286,23.5064286 27.875,27.1364286 L15.58,27.1364286 C12.6257143,27.1364286 10.2228571,29.5392857 10.2228571,32.4935714 L10.2228571,35.1007143 C10.2228571,36.3 10.6235714,37.4035714 11.2907143,38.2971429 L6.02642857,38.2971429 C3.07285714,38.2971429 0.669285714,40.7007143 0.669285714,43.6542857 L0.669285714,46.2614286 C0.669285714,49.2157143 3.07285714,51.6185714 6.02642857,51.6185714 L11.3042857,51.6185714 C10.6292857,52.5157143 10.2228571,53.6264286 10.2228571,54.8328571 L10.2228571,57.44 C10.2228571,60.3935714 12.6257143,62.7971429 15.58,62.7971429 L18.13,62.7971429 L18.13,65.4807143 C18.13,65.8885714 18.3621429,66.2628571 18.7292857,66.4428571 C19.0942857,66.6228571 19.5321429,66.5792857 19.8557143,66.3292857 L22.3935714,64.3714286 L24.9314286,66.3292857 C25.1228571,66.4764286 25.3535714,66.5528571 25.5857143,66.5528571 C25.7471429,66.5528571 25.9085714,66.5164286 26.0578571,66.4435714 C26.425,66.2635714 26.6571429,65.89 26.6571429,65.4814286 L26.6571429,62.7978571 L58.2592857,62.7978571 C58.8507143,62.7978571 59.3307143,62.3178571 59.3307143,61.7264286 C59.3307143,61.135 58.8507143,60.6557143 58.2592857,60.6557143 Z M35.9292857,4.50785714 C36.4928571,3.53285714 37.4542857,2.87071429 38.4435714,2.75214286 C38.84,3.66571429 38.7507143,4.81071429 38.1771429,5.80428571 C37.6135714,6.77928571 36.6521429,7.44142857 35.6628571,7.56 C35.2664286,6.64642857 35.3557143,5.50214286 35.9292857,4.50785714 Z M29.535,9.81428571 C30.1285714,9.81428571 30.7071429,9.92071429 31.2528571,10.1307143 C32.1807143,10.4871429 33.1135714,10.6692857 34.0485714,10.6871429 C34.0557143,10.6878571 34.0628571,10.6907143 34.0707143,10.6914286 C34.1028571,10.6942857 34.1364286,10.6957143 34.1685714,10.6957143 C34.1757143,10.6957143 34.1828571,10.6914286 34.1907143,10.6914286 C35.1535714,10.6914286 36.1171429,10.5135714 37.0757143,10.155 C37.6464286,9.94142857 38.2478571,9.83285714 38.8628571,9.83285714 C41.6292857,9.83285714 43.8778571,12.045 43.8778571,14.7642857 C43.8778571,18.2464286 39.2571429,26.7814286 37.3728571,26.7814286 C37.0871429,26.7814286 36.8107143,26.7464286 36.5485714,26.6771429 C35.7907143,26.4778571 35.07,26.38 34.3457143,26.38 C33.62,26.38 32.9007143,26.4771429 32.1414286,26.6771429 C31.8792857,26.7464286 31.6028571,26.7814286 31.3185714,26.7814286 C28.0164286,26.7814286 24.8121429,16.1557143 24.8121429,14.4571429 C24.8121429,11.8971429 26.9307143,9.81428571 29.535,9.81428571 Z M21.6742857,38.795 C21.3464286,38.6092857 20.9457143,38.6092857 20.6178571,38.795 L18.5114286,39.9885714 L18.5114286,34.9514286 L23.7792857,34.9514286 L23.7792857,39.9878571 L21.6742857,38.795 Z M12.3657143,35.1021429 L12.3657143,32.495 C12.3657143,30.7228571 13.8078571,29.2807143 15.58,29.2807143 L53.5521429,29.2807143 C52.38,32.0835714 52.415,35.0642857 53.6592857,38.3164286 L48.7907143,38.3164286 C48.7335714,38.3064286 48.675,38.2985714 48.615,38.2985714 L25.9228571,38.2985714 L25.9228571,34.6821429 L35.5678571,34.6821429 C36.1592857,34.6821429 36.6392857,34.2028571 36.6392857,33.6107143 C36.6392857,33.0185714 36.1592857,32.5392857 35.5678571,32.5392857 L15.1357143,32.5392857 C14.5442857,32.5392857 14.0642857,33.0185714 14.0642857,33.6107143 C14.0642857,34.2028571 14.5442857,34.6821429 15.1357143,34.6821429 L16.3692857,34.6821429 L16.3692857,38.2985714 L15.4042857,38.2985714 C13.715,38.2042857 12.3657143,36.8135714 12.3657143,35.1021429 Z M2.81214286,46.2628571 L2.81214286,43.6557143 C2.81214286,41.8842857 4.25428571,40.4414286 6.02642857,40.4414286 L15.2292857,40.4414286 C15.3457143,40.45 15.4614286,40.4592857 15.58,40.4592857 L16.3685714,40.4592857 L16.3685714,41.8264286 C16.3685714,42.2071429 16.5707143,42.56 16.9,42.7521429 C17.0664286,42.8492857 17.2535714,42.8978571 17.44,42.8978571 C17.6221429,42.8978571 17.8042857,42.8521429 17.9678571,42.7585714 L21.1457143,40.9592857 L24.3221429,42.7585714 C24.6535714,42.9471429 25.0607143,42.9442857 25.3892857,42.7521429 C25.7192857,42.56 25.9214286,42.2071429 25.9214286,41.8264286 L25.9214286,40.4592857 L44.0728571,40.4592857 C42.8464286,43.2578571 42.8328571,46.2335714 44.0278571,49.4771429 L15.58,49.4771429 L6.02642857,49.4771429 C4.25428571,49.4771429 2.81214286,48.0357143 2.81214286,46.2628571 Z M24.5142857,63.3014286 L23.0478571,62.17 C22.855,62.0214286 22.6242857,61.9464286 22.3935714,61.9464286 C22.1628571,61.9464286 21.9321429,62.0207143 21.7392857,62.17 L20.2728571,63.3014286 L20.2728571,57.2235714 L24.5142857,57.2235714 L24.5142857,63.3014286 L24.5142857,63.3014286 Z M26.6571429,57.2235714 L30.2207143,57.2235714 C30.8121429,57.2235714 31.2921429,56.7435714 31.2921429,56.1521429 C31.2921429,55.56 30.8121429,55.0807143 30.2207143,55.0807143 L25.5857143,55.0807143 L19.2014286,55.0807143 L15.1357143,55.0807143 C14.5442857,55.0807143 14.0642857,55.56 14.0642857,56.1521429 C14.0642857,56.7435714 14.5442857,57.2235714 15.1357143,57.2235714 L18.13,57.2235714 L18.13,60.6557143 L15.58,60.6557143 C13.8078571,60.6557143 12.3657143,59.2135714 12.3657143,57.4414286 L12.3657143,54.8342857 C12.3657143,53.0628571 13.8078571,51.62 15.58,51.62 L48.705,51.62 L53.6335714,51.62 C52.4,54.4242857 52.3835714,57.4057143 53.5821429,60.6557143 L26.6571429,60.6557143 L26.6571429,57.2235714 Z" id="Shape"></path>
                    <path d="M37.7678571,13.43 C38.785,13.6692857 39.5435714,14.4921429 39.7,15.5257143 C39.7807143,16.0564286 40.2371429,16.4364286 40.7571429,16.4364286 C40.8114286,16.4364286 40.8642857,16.4328571 40.9192857,16.4242857 C41.505,16.3357143 41.9071429,15.79 41.8192857,15.2042857 C41.5307143,13.3 40.1328571,11.785 38.2592857,11.3442857 C37.68,11.2078571 37.1057143,11.5664286 36.97,12.1414286 C36.8342857,12.7178571 37.1914286,13.295 37.7678571,13.43 Z" id="Shape"></path>
                </g>
                <g id="noun_553920_cc" transform="translate(281.181818, 12.000000)">
                    <path d="M13.532,38.738 C13.3373333,38.738 13.1426667,38.6793333 12.976,38.5613333 C12.6506667,38.3333333 12.4973333,37.9293333 12.5913333,37.5413333 L13.246,34.842 L7.87333333,33.802 C7.44533333,33.72 7.126,33.3606667 7.092,32.9266667 C7.05933333,32.492 7.322,32.0873333 7.73266667,31.9406667 L21.808,26.9153333 C22.3106667,26.7373333 22.9613333,28.5586667 22.4586667,28.7373333 L11.716,32.5733333 L14.6093333,33.1333333 C14.8693333,33.1826667 15.096,33.338 15.2393333,33.5606667 C15.382,33.7826667 15.428,34.0546667 15.3653333,34.3113333 L15.0526667,35.6013333 L24.6933333,29.216 C25.1393333,28.9226667 26.2073333,30.5353333 25.7626667,30.83 L14.0666667,38.5773333 C13.904,38.6846667 13.718,38.738 13.532,38.738 Z" id="Shape"></path>
                    <path d="M27.9673333,39.63 C27.6853333,39.63 27.412,39.5066667 27.2253333,39.2826667 L24.804,36.3873333 L21.256,38.3173333 C20.8946667,38.514 20.4493333,38.4606667 20.1446667,38.1846667 C19.84,37.9106667 19.742,37.4726667 19.9006667,37.0933333 L22.1373333,31.752 L24.886,30.1986667 L22.7493333,35.302 L24.5753333,34.3086667 C24.9826667,34.0886667 25.4853333,34.1853333 25.7806667,34.5386667 L27.0973333,36.1126667 L27.2673333,31.718 C27.288,31.1826667 27.7586667,30.7673333 28.2713333,30.788 C28.806,30.808 29.2226667,31.258 29.202,31.792 L28.9353333,38.698 C28.92,39.0993333 28.66,39.4473333 28.2813333,39.5766667 C28.1773333,39.6133333 28.072,39.63 27.9673333,39.63 Z" id="Shape"></path>
                    <path d="M59.9406667,32.0486667 C59.6406667,29.4253333 58.2733333,27.342 55.9866667,26.0233333 C55.9853333,26.0226667 55.984,26.022 55.9813333,26.0206667 L39.7333333,16.6386667 L39.7346667,16.638 L33.1486667,12.8366667 L13.4193333,1.44466667 C9.67133333,-0.718 4.78466667,1.22466667 2.05,5.962 C-0.956,11.1693333 -0.628,16.2086667 2.84866667,18.218 L22.1966667,29.3893333 L22.1973333,29.3893333 L22.4973333,29.5626667 L45.416,42.796 C46.1533333,43.2226667 47.008,43.4366667 47.91,43.4366667 C48.728,43.4366667 49.586,43.2606667 50.4306667,42.9066667 C52.168,42.1826667 53.6893333,40.8086667 54.7106667,39.038 C56.8,35.422 56.57,32.4113333 54.0986667,30.982 C52.0786667,29.8153333 49.9106667,30.7853333 48.8133333,32.3466667 C47.7713333,33.8306667 47.5633333,36.0393333 49.448,37.632 C49.856,37.976 50.466,37.9246667 50.812,37.516 C51.1573333,37.1086667 51.1046667,36.498 50.6966667,36.1513333 C49.42,35.0746667 50.144,33.818 50.3966667,33.4586667 C50.9686667,32.644 52.0686667,32.046 53.13,32.658 C55.1806667,33.8426667 53.7473333,36.838 53.034,38.0693333 C52.2226667,39.4746667 51.0333333,40.558 49.686,41.12 C48.468,41.6293333 47.2626667,41.628 46.384,41.1186667 C43.478,39.438 44.3,34.9586667 46.2926667,31.5066667 C47.3993333,29.5886667 48.932,28.1646667 50.6066667,27.4973333 C52.1573333,26.88 53.724,26.952 55.018,27.7 C56.7526667,28.7 57.7886667,30.28 58.0166667,32.2693333 C58.242,34.2366667 57.662,36.5413333 56.3826667,38.7573333 C56.116,39.22 56.2746667,39.8113333 56.7366667,40.0786667 C57.1973333,40.3453333 57.7913333,40.188 58.0573333,39.7246667 C59.544,37.1526667 60.212,34.426 59.9406667,32.0486667 Z M26.4933333,29.6346667 L23.166,27.7133333 C20.2613333,26.0333333 21.0826667,21.5533333 23.0746667,18.1006667 C24.6506667,15.3706667 27.1006667,13.6746667 29.468,13.6746667 C30.304,13.6746667 31.0886667,13.8826667 31.8,14.2926667 L34.7026667,15.9686667 C32.2366667,16.5653333 29.9466667,18.4113333 28.362,21.1553333 C26.584,24.2393333 25.974,27.264 26.4933333,29.6346667 Z M3.726,6.93066667 C5.91,3.148 9.66,1.51266667 12.4513333,3.12066667 L27.7393333,11.948 C25.2726667,12.544 22.984,14.3893333 21.3993333,17.1333333 C19.616,20.222 19.0166667,23.2466667 19.5406667,25.6193333 L3.818,16.542 C0.911333333,14.8633333 1.73333333,10.382 3.726,6.93066667 Z M49.8906667,25.6993333 C47.814,26.5273333 45.9413333,28.246 44.618,30.5393333 C42.834,33.628 42.2346667,36.6526667 42.7593333,39.0253333 L30.1313333,31.736 L30.132,31.7346667 L30.1313333,31.7346667 L30.13,31.7346667 C27.2273333,30.054 28.048,25.576 30.0386667,22.124 C31.616,19.392 34.0666667,17.6953333 36.4333333,17.6953333 C37.2653333,17.6953333 38.048,17.9033333 38.7546667,18.3093333 L50.9713333,25.3626667 C50.6113333,25.4513333 50.2506667,25.556 49.8906667,25.6993333 Z" id="Shape"></path>
                </g>
                <g id="Bell" transform="translate(468.636364, 0.000000)">
                    <path d="M25.7144196,14.2857589 C19.4125446,14.2857589 14.285625,19.4126786 14.285625,25.7145536 C14.285625,32.0164286 19.4125446,37.1444196 25.7144196,37.1444196 C32.0162946,37.1444196 37.1441518,32.0164286 37.1441518,25.7145536 C37.1441518,19.4126786 32.0162946,14.2857589 25.7144196,14.2857589 Z M25.7144196,34.2857143 C20.9882143,34.2857143 17.143125,30.440625 17.143125,25.7145536 C17.143125,20.9883482 20.9882143,17.1432589 25.7144196,17.1432589 C30.4404911,17.1432589 34.2857143,20.9883482 34.2857143,25.7145536 C34.2857143,30.440625 30.4404911,34.2857143 25.7144196,34.2857143 Z" id="Shape"></path>
                    <circle id="Oval" cx="25.7144196" cy="25.7145536" r="1.42821429"></circle>
                    <path d="M44.2840179,25.715625 L44.2840179,25.7145536 C44.2840179,15.474375 35.9555357,7.14375 25.7144196,7.14375 C24.9254464,7.14375 24.2862054,7.78299107 24.2862054,8.57196429 C24.2862054,9.3609375 24.9254464,10.0001786 25.7144196,10.0001786 C34.3778571,10.0001786 41.4297321,17.0501786 41.4297321,25.7145536 L41.4297321,25.715625 C41.4297321,26.5045982 42.0680357,27.1438393 42.856875,27.1438393 C43.6457143,27.1438393 44.2840179,26.5044643 44.2840179,25.715625 Z" id="Shape"></path>
                    <path d="M25.7144196,41.4298661 L25.7144196,41.4298661 C17.0500446,41.4298661 10.0000446,34.3789286 10.0000446,25.7145536 C10.0000446,24.9255804 9.36080357,24.2863393 8.57183036,24.2863393 C7.78285714,24.2863393 7.14361607,24.9255804 7.14361607,25.7145536 C7.14361607,35.9547321 15.4742411,44.2841518 25.7144196,44.2841518 L25.7144196,44.2841518 C26.5032589,44.2841518 27.1425,43.6458482 27.1425,42.8570089 C27.1425,42.0681696 26.5032589,41.4298661 25.7144196,41.4298661 Z" id="Shape"></path>
                    <path d="M59.9994643,32.8576339 C59.9994643,30.4940625 58.0783929,28.5719196 55.71375,28.5719196 C53.3492411,28.5719196 51.4281696,30.4940625 51.4281696,32.8576339 C51.4281696,34.4197768 52.269375,35.7883929 53.5208036,36.5375893 L51.5914286,46.1760268 L42.856875,50.5454464 L42.856875,50.0014286 C42.856875,49.2104464 42.2165625,48.57 41.4297321,48.57 L37.5166071,48.57 C39.8436161,47.3687946 41.9926339,45.7992857 43.8969643,43.8970982 C48.7540179,39.0403125 51.4281696,32.5834821 51.4281696,25.7145536 C51.4281696,18.8466964 48.7538839,12.3889286 43.8969643,7.531875 C39.0400446,2.67508929 32.5822768,0.000669642857 25.7144196,0.000669642857 C18.8454911,0.000669642857 12.3887946,2.67508929 7.53174107,7.531875 C2.67482143,12.3889286 0.000535714286,18.8465625 0.000535714286,25.7145536 C0.000535714286,32.5834821 2.67495536,39.0403125 7.53174107,43.8970982 C9.43607143,45.7992857 11.5861607,47.3687946 13.9110268,48.57 L10.0000446,48.57 C9.21107143,48.57 8.57183036,49.2103125 8.57183036,50.0014286 L8.57183036,57.1412946 C7.78285714,57.1412946 7.14361607,57.7816071 7.14361607,58.5727232 C7.14361607,59.3595536 7.78285714,59.9998661 8.57183036,59.9998661 L8.57183036,67.1441518 C8.57183036,67.9309821 9.21107143,68.5710268 10.0000446,68.5710268 L41.4297321,68.5710268 C42.2165625,68.5710268 42.856875,67.9309821 42.856875,67.1441518 L42.856875,59.9998661 C43.6458482,59.9998661 44.2840179,59.3595536 44.2840179,58.5727232 C44.2840179,57.7817411 43.6457143,57.1412946 42.856875,57.1412946 L42.856875,53.7389732 L53.4957589,48.4194643 C53.8891071,48.2227232 54.1715625,47.8544196 54.2574107,47.4233036 L56.3228571,37.0984821 C58.3986161,36.8011607 59.9994643,35.0140179 59.9994643,32.8576339 Z M9.5521875,41.8777232 C5.23526786,37.5587946 2.85803571,31.8196875 2.85803571,25.7145536 C2.85803571,19.6094196 5.23526786,13.869375 9.5521875,9.55232143 C13.8691071,5.23526786 19.6091518,2.85816964 25.7144196,2.85816964 C31.8195536,2.85816964 37.5585268,5.23540179 41.8775893,9.55232143 C46.1926339,13.8692411 48.5698661,19.6094196 48.5698661,25.7145536 C48.5698661,31.8196875 46.1926339,37.5587946 41.8775893,41.8777232 C37.5585268,46.1927679 31.8195536,48.57 25.7144196,48.57 C19.6091518,48.5698661 13.8692411,46.1926339 9.5521875,41.8777232 Z M39.9984375,65.7124554 L11.4293304,65.7124554 L11.4293304,59.9995982 L15.7149107,59.9995982 C15.7149107,60.7885714 16.3541518,61.4267411 17.143125,61.4267411 C17.9320982,61.4267411 18.5713393,60.7884375 18.5713393,59.9995982 L21.4287054,59.9995982 C21.4287054,60.7885714 22.0679464,61.4267411 22.8569196,61.4267411 C23.6458929,61.4267411 24.2862054,60.7884375 24.2862054,59.9995982 L27.1425,59.9995982 C27.1425,60.7885714 27.7828125,61.4267411 28.5717857,61.4267411 C29.3607589,61.4267411 30,60.7885714 30,59.9995982 L32.8585714,59.9995982 C32.8585714,60.7885714 33.496875,61.4267411 34.2857143,61.4267411 C35.0745536,61.4267411 35.7128571,60.7884375 35.7128571,59.9995982 L39.9984375,59.9995982 L39.9984375,65.7124554 L39.9984375,65.7124554 Z M35.7128571,57.1410268 C35.7128571,56.3541964 35.0745536,55.7138839 34.2857143,55.7138839 C33.496875,55.7138839 32.8585714,56.3541964 32.8585714,57.1410268 L30,57.1410268 C30,56.3541964 29.3607589,55.7138839 28.5717857,55.7138839 C27.7828125,55.7138839 27.1425,56.3541964 27.1425,57.1410268 L24.2862054,57.1410268 C24.2862054,56.3541964 23.6458929,55.7138839 22.8569196,55.7138839 C22.0679464,55.7138839 21.4287054,56.3541964 21.4287054,57.1410268 L18.5713393,57.1410268 C18.5713393,56.3541964 17.9320982,55.7138839 17.143125,55.7138839 C16.3541518,55.7138839 15.7149107,56.3541964 15.7149107,57.1410268 L11.4293304,57.1410268 L11.4293304,51.4284375 L39.9984375,51.4284375 L39.9984375,57.1410268 L35.7128571,57.1410268 Z M55.71375,34.2857143 C54.9269196,34.2857143 54.2866071,33.6455357 54.2866071,32.8576339 C54.2866071,32.0697321 54.9269196,31.4283482 55.71375,31.4283482 C56.5005804,31.4283482 57.1408929,32.0697321 57.1408929,32.8576339 C57.1408929,33.6455357 56.5005804,34.2857143 55.71375,34.2857143 Z" id="Shape"></path>
                </g>
            </g>
            <g id="Rohith" opacity="0.1" transform="translate(295.000000, 88.000000)" fill-rule="nonzero" fill="#000000">
                <g id="noun_776662_cc" transform="translate(185.454545, 3.000000)">
                    <path d="M59.3333333,23.5 L51.1666667,9.58333333 L56.5833333,1.83333333 C56.75,1.58333333 56.75,1.25 56.5833333,0.916666667 C56.4166667,0.666666667 56.0833333,0.5 55.75,0.5 L21.1666667,4.16666667 C20.9166667,4.16666667 20.75,4.33333333 20.5833333,4.5 L0.666666667,33.1666667 C0.5,33.4166667 0.5,33.75 0.666666667,34.0833333 C0.833333333,34.3333333 1.08333333,34.5 1.41666667,34.5 L1.5,34.5 L11,33.5 L19.1666667,47.3333333 C19.25,47.5 19.3333333,47.5833333 19.5,47.6666667 C19.5833333,47.75 20.4166667,48.0833333 22.1666667,48.0833333 C25.3333333,48.0833333 31.5,46.9166667 42.0833333,40.6666667 L42.5,40.4166667 C47.0833333,37.75 50.8333333,35.0833333 53.6666667,32.5 L54.5833333,34.5833333 C54.6666667,34.8333333 54.8333333,35 55.0833333,35.0833333 C55.1666667,35.0833333 55.25,35.1666667 55.3333333,35.1666667 C55.5,35.1666667 55.6666667,35.1666667 55.75,35.0833333 L59,33.1666667 C59.1666667,33.0833333 59.3333333,32.8333333 59.4166667,32.5833333 C59.5,32.3333333 59.4166667,32.0833333 59.25,31.9166667 L57.0833333,29.0833333 C59.5,26.0833333 59.6666667,24.3333333 59.6666667,24.0833333 C59.5,23.8333333 59.4166667,23.6666667 59.3333333,23.5 Z M21.75,5.91666667 L54.1666667,2.5 L45.8333333,14.4166667 L28.8333333,15.8333333 C28.4166667,15.8333333 28,16.25 28.0833333,16.75 C28.1666667,17.25 28.5,17.5833333 29,17.5 L44.5833333,16.1666667 L35.5,29.1666667 L3.08333333,32.5833333 L21.75,5.91666667 Z M41.5833333,38.9166667 L41.1666667,39.1666667 C27.1666667,47.4166667 21.4166667,46.5 20.3333333,46.1666667 L12.75,33.25 L36,30.8333333 C36.25,30.8333333 36.4166667,30.6666667 36.5833333,30.5 L46.0833333,16.9166667 L49.5833333,22.8333333 C49.1666667,23.25 48.8333333,23.8333333 48.6666667,24.4166667 C48.4166667,25.3333333 48.5833333,26.25 49,27.0833333 C49.5,27.9166667 50.25,28.4166667 51.0833333,28.6666667 C51.3333333,28.75 51.6666667,28.75 52,28.75 L52,28.75 L52.8333333,30.75 C50.0833333,33.4166667 46.25,36.1666667 41.5833333,38.9166667 Z M52.9166667,26.8333333 C52.5,27.0833333 52,27.1666667 51.5833333,27 C51.0833333,26.9166667 50.75,26.5833333 50.5,26.1666667 C50.25,25.75 50.1666667,25.25 50.3333333,24.8333333 C50.4166667,24.3333333 50.75,24 51.1666667,23.75 C51.4166667,23.5833333 51.75,23.5 52.0833333,23.5 C52.6666667,23.5 53.3333333,23.8333333 53.6666667,24.4166667 C54.0833333,25.25 53.8333333,26.3333333 52.9166667,26.8333333 Z M55.6666667,33 L53.6666667,28.3333333 C53.6666667,28.3333333 53.75,28.3333333 53.75,28.25 C53.8333333,28.1666667 54,28.0833333 54.0833333,28 L55,29.25 C55.0833333,29.3333333 55.0833333,29.5 55.25,29.5833333 L55.3333333,29.5833333 L57.25,32 L55.6666667,33 Z M55.8333333,27.5833333 L55.1666667,26.75 C55.5833333,25.75 55.5833333,24.5833333 55,23.5833333 C54.1666667,22.1666667 52.5,21.5833333 51,22 L47.0833333,15.4166667 L50.0833333,11.1666667 L57.75,24.1666667 C57.6666667,24.5833333 57.25,25.75 55.8333333,27.5833333 Z" id="Shape"></path>
                    <path d="M46.0833333,45 C45.5833333,45 45.25,45.3333333 45.25,45.8333333 L45.25,54.4166667 C45.25,54.9166667 45.5833333,55.25 46.0833333,55.25 C46.5833333,55.25 46.9166667,54.9166667 46.9166667,54.4166667 L46.9166667,45.8333333 C46.9166667,45.4166667 46.5833333,45 46.0833333,45 Z" id="Shape"></path>
                    <path d="M50.5833333,45.3333333 C50.0833333,45.3333333 49.75,45.6666667 49.75,46.1666667 L49.75,56.1666667 C49.75,56.6666667 50.0833333,57 50.5833333,57 C51.0833333,57 51.4166667,56.6666667 51.4166667,56.1666667 L51.4166667,46.1666667 C51.4166667,45.6666667 51,45.3333333 50.5833333,45.3333333 Z" id="Shape"></path>
                    <path d="M54.75,38.9166667 C54.25,38.9166667 53.9166667,39.25 53.9166667,39.75 L53.9166667,50.8333333 C53.9166667,51.3333333 54.25,51.6666667 54.75,51.6666667 C55.25,51.6666667 55.5833333,51.3333333 55.5833333,50.8333333 L55.5833333,39.75 C55.5833333,39.3333333 55.1666667,38.9166667 54.75,38.9166667 Z" id="Shape"></path>
                    <path d="M23.9166667,52 C23.4166667,52 23.0833333,52.3333333 23.0833333,52.8333333 L23.0833333,60.3333333 C23.0833333,60.8333333 23.4166667,61.1666667 23.9166667,61.1666667 C24.4166667,61.1666667 24.75,60.8333333 24.75,60.3333333 L24.75,52.8333333 C24.75,52.3333333 24.3333333,52 23.9166667,52 Z" id="Shape"></path>
                    <path d="M46.0833333,56.5 C45.5833333,56.5 45.25,56.8333333 45.25,57.3333333 L45.25,60.3333333 C45.25,60.8333333 45.5833333,61.1666667 46.0833333,61.1666667 C46.5833333,61.1666667 46.9166667,60.8333333 46.9166667,60.3333333 L46.9166667,57.3333333 C46.9166667,56.9166667 46.5,56.5 46.0833333,56.5 Z" id="Shape"></path>
                    <path d="M54.5833333,53.1666667 C54.0833333,53.1666667 53.75,53.5 53.75,54 L53.75,57 C53.75,57.5 54.0833333,57.8333333 54.5833333,57.8333333 C55.0833333,57.8333333 55.4166667,57.5 55.4166667,57 L55.4166667,54 C55.4166667,53.5833333 55.0833333,53.1666667 54.5833333,53.1666667 Z" id="Shape"></path>
                    <path d="M20.3333333,51.0833333 C19.8333333,51.0833333 19.5,51.4166667 19.5,51.9166667 L19.5,54.9166667 C19.5,55.4166667 19.8333333,55.75 20.3333333,55.75 C20.8333333,55.75 21.1666667,55.4166667 21.1666667,54.9166667 L21.1666667,51.9166667 C21.1666667,51.5 20.8333333,51.0833333 20.3333333,51.0833333 Z" id="Shape"></path>
                </g>
                <g id="School-Building" transform="translate(0.000000, 9.000000)">
                    <path d="M16.5753333,14.3413333 C17.1073333,14.3413333 17.624,14.1853333 18.0666667,13.8886667 L30,5.932 L41.9333333,13.8893333 C42.376,14.184 42.892,14.34 43.4253333,14.34 C44.3286667,14.34 45.168,13.892 45.6706667,13.1393333 C46.4933333,11.9033333 46.1566667,10.2273333 44.922,9.40266667 L31.4953333,0.450666667 C30.6073333,-0.142666667 29.3906667,-0.142 28.504,0.45 L15.076,9.40266667 C13.84,10.228 13.5053333,11.9053333 14.3293333,13.14 C14.8306667,13.8926667 15.6706667,14.3413333 16.5753333,14.3413333 Z M16.0806667,10.908 L29.5093333,1.95533333 C29.6553333,1.858 29.8246667,1.80733333 30,1.80733333 C30.1753333,1.80733333 30.3453333,1.858 30.4906667,1.956 L43.9186667,10.908 C44.324,11.1793333 44.4346667,11.73 44.166,12.1346667 C43.9033333,12.528 43.3266667,12.642 42.936,12.382 L30.8726667,4.33866667 C30.6266667,4.17533333 30.3173333,4.08533333 30,4.08533333 C29.6826667,4.08533333 29.3746667,4.17533333 29.126,4.33933333 L17.0626667,12.3826667 C16.6673333,12.6446667 16.0973333,12.5273333 15.836,12.1353333 C15.5653333,11.73 15.676,11.18 16.0806667,10.908 Z" id="Shape"></path>
                    <path d="M58.6473333,26.4706667 L42.0953333,26.4706667 L42.0953333,16.468 C42.0953333,16.1653333 41.9433333,15.8826667 41.6926667,15.7146667 L30.8753333,8.50333333 C30.3826667,8.174 29.6173333,8.17466667 29.1266667,8.50266667 L18.3086667,15.7146667 C18.0566667,15.8826667 17.9053333,16.1653333 17.9053333,16.468 L17.9053333,26.4706667 L1.35333333,26.4706667 C0.607333333,26.4706667 0,27.0773333 0,27.8226667 L0,49.308 C0,50.0533333 0.607333333,50.66 1.35333333,50.66 L26.0906667,50.66 C26.5906667,50.66 26.996,50.2553333 26.996,49.7553333 L26.996,41.7086667 L33.0026667,41.7086667 L33.0026667,49.7553333 C33.0026667,50.2553333 33.4073333,50.66 33.9073333,50.66 L58.6466667,50.66 C59.392,50.66 59.9993333,50.0533333 59.9993333,49.308 L59.9993333,27.8226667 C60,27.0773333 59.3926667,26.4706667 58.6473333,26.4706667 Z M58.1893333,48.8486667 L34.8153333,48.8486667 L34.8153333,40.8033333 C34.8153333,40.3026667 34.4093333,39.8986667 33.9093333,39.8986667 L26.0913333,39.8986667 C25.5913333,39.8986667 25.186,40.3026667 25.186,40.8033333 L25.186,48.8486667 L1.81066667,48.8486667 L1.81066667,28.2813333 L18.8106667,28.2813333 C19.3106667,28.2813333 19.716,27.8766667 19.716,27.3766667 L19.716,16.9526667 L30,10.096 L40.284,16.9526667 L40.284,27.376 C40.284,27.876 40.6893333,28.2806667 41.1893333,28.2806667 L58.1893333,28.2806667 L58.1893333,48.8486667 Z" id="Shape"></path>
                    <path d="M9.85866667,40.156 L5.38133333,40.156 C5.024,40.156 4.73466667,40.446 4.73466667,40.8033333 L4.73466667,45.28 C4.73466667,45.6366667 5.024,45.9273333 5.38133333,45.9273333 L9.85866667,45.9273333 C10.216,45.9273333 10.5053333,45.6366667 10.5053333,45.28 L10.5053333,40.8033333 C10.5053333,40.446 10.216,40.156 9.85866667,40.156 Z M9.212,44.6326667 L6.028,44.6326667 L6.028,41.45 L9.212,41.45 L9.212,44.6326667 Z" id="Shape"></path>
                    <path d="M9.85866667,31.2046667 L5.38133333,31.2046667 C5.024,31.2046667 4.73466667,31.4953333 4.73466667,31.852 L4.73466667,36.3286667 C4.73466667,36.6853333 5.024,36.976 5.38133333,36.976 L9.85866667,36.976 C10.216,36.976 10.5053333,36.6853333 10.5053333,36.3286667 L10.5053333,31.852 C10.5053333,31.494 10.216,31.2046667 9.85866667,31.2046667 Z M9.212,35.6806667 L6.028,35.6806667 L6.028,32.498 L9.212,32.498 L9.212,35.6806667 Z" id="Shape"></path>
                    <path d="M18.8106667,40.156 L14.3346667,40.156 C13.9773333,40.156 13.688,40.446 13.688,40.8033333 L13.688,45.28 C13.688,45.6366667 13.9773333,45.9273333 14.3346667,45.9273333 L18.8106667,45.9273333 C19.168,45.9273333 19.4573333,45.6366667 19.4573333,45.28 L19.4573333,40.8033333 C19.4573333,40.446 19.168,40.156 18.8106667,40.156 Z M18.164,44.6326667 L14.9813333,44.6326667 L14.9813333,41.45 L18.164,41.45 L18.164,44.6326667 Z" id="Shape"></path>
                    <path d="M18.8106667,31.2046667 L14.3346667,31.2046667 C13.9773333,31.2046667 13.688,31.4953333 13.688,31.852 L13.688,36.3286667 C13.688,36.6853333 13.9773333,36.976 14.3346667,36.976 L18.8106667,36.976 C19.168,36.976 19.4573333,36.6853333 19.4573333,36.3286667 L19.4573333,31.852 C19.4573333,31.494 19.168,31.2046667 18.8106667,31.2046667 Z M18.164,35.6806667 L14.9813333,35.6806667 L14.9813333,32.498 L18.164,32.498 L18.164,35.6806667 Z" id="Shape"></path>
                    <path d="M27.7626667,31.2046667 L23.2866667,31.2046667 C22.9293333,31.2046667 22.64,31.4953333 22.64,31.852 L22.64,36.3286667 C22.64,36.6853333 22.9293333,36.976 23.2866667,36.976 L27.7626667,36.976 C28.12,36.976 28.4093333,36.6853333 28.4093333,36.3286667 L28.4093333,31.852 C28.4086667,31.494 28.12,31.2046667 27.7626667,31.2046667 Z M27.116,35.6806667 L23.9333333,35.6806667 L23.9333333,32.498 L27.116,32.498 L27.116,35.6806667 Z" id="Shape"></path>
                    <path d="M35.4953333,20 C35.4953333,16.9686667 33.03,14.5033333 30,14.5033333 C26.97,14.5033333 24.5046667,16.9686667 24.5046667,20 C24.5046667,23.03 26.97,25.4953333 30,25.4953333 C33.03,25.4953333 35.4953333,23.03 35.4953333,20 Z M30,24.2026667 C27.6826667,24.2026667 25.7973333,22.3173333 25.7973333,20 C25.7973333,17.682 27.6826667,15.796 30,15.796 C32.318,15.796 34.2033333,17.682 34.2033333,20 C34.2033333,22.3173333 32.318,24.2026667 30,24.2026667 Z" id="Shape"></path>
                    <path d="M36.7133333,31.2046667 L32.2366667,31.2046667 C31.88,31.2046667 31.5906667,31.4953333 31.5906667,31.852 L31.5906667,36.3286667 C31.5906667,36.6853333 31.88,36.976 32.2366667,36.976 L36.7133333,36.976 C37.07,36.976 37.36,36.6853333 37.36,36.3286667 L37.36,31.852 C37.36,31.494 37.07,31.2046667 36.7133333,31.2046667 Z M36.068,35.6806667 L32.8853333,35.6806667 L32.8853333,32.498 L36.068,32.498 L36.068,35.6806667 Z" id="Shape"></path>
                    <path d="M45.6653333,40.156 L41.1893333,40.156 C40.832,40.156 40.5426667,40.446 40.5426667,40.8033333 L40.5426667,45.28 C40.5426667,45.6366667 40.832,45.9273333 41.1893333,45.9273333 L45.6653333,45.9273333 C46.0226667,45.9273333 46.312,45.6366667 46.312,45.28 L46.312,40.8033333 C46.312,40.446 46.0226667,40.156 45.6653333,40.156 Z M45.018,44.6326667 L41.836,44.6326667 L41.836,41.45 L45.018,41.45 L45.018,44.6326667 Z" id="Shape"></path>
                    <path d="M40.5426667,31.85 L40.5426667,36.3273333 C40.5426667,36.6846667 40.832,36.9746667 41.1893333,36.9746667 L45.6653333,36.9746667 C46.0226667,36.9746667 46.312,36.6846667 46.312,36.3273333 L46.312,31.85 C46.312,31.494 46.0226667,31.204 45.6653333,31.204 L41.1893333,31.204 C40.832,31.2046667 40.5426667,31.494 40.5426667,31.85 Z M41.836,32.498 L45.018,32.498 L45.018,35.6806667 L41.836,35.6806667 L41.836,32.498 Z" id="Shape"></path>
                    <path d="M50.1413333,45.9273333 L54.6186667,45.9273333 C54.976,45.9273333 55.266,45.6366667 55.266,45.28 L55.266,40.8033333 C55.266,40.446 54.976,40.156 54.6186667,40.156 L50.1413333,40.156 C49.784,40.156 49.4946667,40.446 49.4946667,40.8033333 L49.4946667,45.28 C49.4946667,45.6366667 49.784,45.9273333 50.1413333,45.9273333 Z M50.788,41.45 L53.972,41.45 L53.972,44.6326667 L50.788,44.6326667 L50.788,41.45 Z" id="Shape"></path>
                    <path d="M50.1413333,36.9746667 L54.6186667,36.9746667 C54.976,36.9746667 55.266,36.6846667 55.266,36.3273333 L55.266,31.85 C55.266,31.494 54.976,31.204 54.6186667,31.204 L50.1413333,31.204 C49.784,31.204 49.4946667,31.494 49.4946667,31.85 L49.4946667,36.3273333 C49.4946667,36.6846667 49.784,36.9746667 50.1413333,36.9746667 Z M50.788,32.498 L53.972,32.498 L53.972,35.6806667 L50.788,35.6806667 L50.788,32.498 Z" id="Shape"></path>
                    <path d="M30.5166667,19.7653333 L30.5166667,17.5473333 C30.5166667,17.262 30.284,17.0306667 30,17.0306667 C29.716,17.0306667 29.4833333,17.2626667 29.4833333,17.5473333 L29.4833333,20 C29.4833333,20.1493333 29.5473333,20.2906667 29.6586667,20.3886667 L31.412,21.9286667 C31.51,22.0146667 31.632,22.0566667 31.7533333,22.0566667 C31.8973333,22.0566667 32.0406667,21.9966667 32.1426667,21.8806667 C32.3306667,21.666 32.31,21.3386667 32.0953333,21.15 L30.5166667,19.7653333 Z" id="Shape"></path>
                </g>
                <g id="Open-Book" transform="translate(100.727273, 12.000000)">
                    <path d="M30.7717021,39.6185106 L29.6342553,39.2565957 C29.58,39.2393617 24.3740426,37.6123404 17.1191489,37.6123404 C12.8495745,37.6123404 8.71659574,38.1682979 4.83638298,39.2655319 L3.72638298,39.5795745 L3.72638298,3.22595745 L4.19425532,2.98021277 C4.39531915,2.87617021 9.22531915,0.394468085 16.8491489,0.394468085 C21.306383,0.394468085 25.8051064,1.24978723 30.2112766,2.9393617 L30.7710638,3.15446809 L30.7710638,39.6185106 L30.7717021,39.6185106 Z M5.47531915,4.31170213 L5.47531915,37.2842553 C9.1812766,36.3408511 13.092766,35.862766 17.1197872,35.862766 C22.7112766,35.862766 27.0593617,36.7729787 29.0234043,37.2714894 L29.0234043,4.36085106 C24.9995745,2.88893617 20.9042553,2.14212766 16.8497872,2.14212766 C10.9914894,2.14276596 6.82404255,3.72319149 5.47531915,4.31170213 Z" id="Shape"></path>
                    <path d="M30,39.6204255 L30,3.15382979 L30.5432679,2.9387234 C34.7903556,1.24978723 39.1229634,0.393829787 43.4198865,0.393829787 C50.7684618,0.393829787 55.4240771,2.87361702 55.6178816,2.97957447 L56.0725532,3.22531915 L56.0725532,39.5789362 L54.9989377,39.2648936 C51.2625095,38.1676596 47.2781346,37.6117021 43.1596347,37.6117021 C36.1469873,37.6117021 31.1492916,39.2387234 31.0994561,39.2559574 L30,39.6204255 Z M42.2666897,35.8634043 C46.417197,35.8634043 50.4506219,36.3414894 54.2696149,37.2848936 L54.2696149,4.31170213 C52.879754,3.72255319 48.5819069,2.14276596 42.5449249,2.14276596 C38.3667914,2.14276596 34.1498496,2.88765957 30,4.36148936 L30,37.2721277 C32.0278945,36.7729787 36.5053118,35.8634043 42.2666897,35.8634043 Z" id="Shape"></path>
                    <polygon id="Shape" points="59.7204255 43.0104255 0.279574468 43.0104255 0.279574468 5.26340426 4.60085106 5.26340426 4.60085106 7.01234043 2.02851064 7.01234043 2.02851064 41.2614894 57.9708511 41.2614894 57.9708511 7.88170213 55.1980851 7.88170213 55.1980851 6.13276596 59.7204255 6.13276596"></polygon>
                    <rect id="Rectangle-path" x="29.0234043" y="38.2978723" width="1.74829787" height="3.19148936"></rect>
                </g>
            </g>
            <g id="Rohith" opacity="0.1" transform="translate(-822.000000, 88.000000)" fill-rule="nonzero" fill="#000000">
                <g id="Book-Stack" transform="translate(930.272727, 0.000000)">
                    <path d="M43.6757143,34.6814286 L49.0635714,34.6814286 C49.655,34.6814286 50.135,34.2021429 50.135,33.61 C50.135,33.0178571 49.655,32.5385714 49.0635714,32.5385714 L43.6757143,32.5385714 C43.0842857,32.5385714 42.6042857,33.0178571 42.6042857,33.61 C42.6042857,34.2021429 43.0842857,34.6814286 43.6757143,34.6814286 Z" id="Shape"></path>
                    <path d="M18.9478571,46.045 L39.5107143,46.045 C40.1021429,46.045 40.5821429,45.565 40.5821429,44.9735714 C40.5821429,44.3814286 40.1021429,43.9021429 39.5107143,43.9021429 L18.9478571,43.9021429 C18.3564286,43.9021429 17.8764286,44.3814286 17.8764286,44.9735714 C17.8764286,45.565 18.3564286,46.045 18.9478571,46.045 Z" id="Shape"></path>
                    <path d="M9.42071429,43.9021429 L5.58142857,43.9021429 C4.98928571,43.9021429 4.51,44.3814286 4.51,44.9735714 C4.51,45.565 4.98928571,46.045 5.58142857,46.045 L9.42071429,46.045 C10.0121429,46.045 10.4921429,45.565 10.4921429,44.9735714 C10.4921429,44.3814286 10.0121429,43.9021429 9.42071429,43.9021429 Z" id="Shape"></path>
                    <path d="M49.0635714,55.0807143 L40.2442857,55.0807143 C39.6528571,55.0807143 39.1728571,55.56 39.1728571,56.1521429 C39.1728571,56.7435714 39.6528571,57.2235714 40.2442857,57.2235714 L49.0642857,57.2235714 C49.6557143,57.2235714 50.1357143,56.7435714 50.1357143,56.1521429 C50.135,55.56 49.6557143,55.0807143 49.0635714,55.0807143 Z" id="Shape"></path>
                    <path d="M58.2592857,60.6557143 L55.8892857,60.6557143 C54.4442857,57.2778571 54.4942857,54.3792857 56.0314286,51.62 L58.1685714,51.62 C58.76,51.62 59.24,51.1407143 59.24,50.5485714 C59.24,49.9571429 58.76,49.4771429 58.1685714,49.4771429 L48.7057143,49.4771429 L46.3342857,49.4771429 C44.8928571,46.1064286 44.9407143,43.2128571 46.4685714,40.4592857 L58.26,40.4592857 C58.8514286,40.4592857 59.3314286,39.9792857 59.3314286,39.3878571 C59.3314286,38.7957143 58.8514286,38.3164286 58.26,38.3164286 L55.9778571,38.3164286 C54.4807143,34.9342857 54.4614286,32.0342857 55.9192857,29.2807143 L58.1692857,29.2807143 C58.7607143,29.2807143 59.2407143,28.8014286 59.2407143,28.2092857 C59.2407143,27.6171429 58.7607143,27.1378571 58.1692857,27.1378571 L40.4871429,27.1378571 C43.4671429,23.9414286 46.0214286,17.335 46.0214286,14.7642857 C46.0214286,11.0528571 43.1128571,8.00571429 39.4307143,7.71785714 C39.65,7.45571429 39.8564286,7.18 40.0321429,6.87571429 C41.1214286,4.98785714 41.0871429,2.70642857 39.9428571,1.06285714 L39.6557143,0.649285714 L39.1535714,0.606428571 C37.1542857,0.432142857 35.1592857,1.55714286 34.0742857,3.43571429 C33.8535714,3.81785714 33.6921429,4.21785714 33.5635714,4.62357143 C32.6064286,3.45142857 31.2478571,2.36142857 29.4871429,1.35857143 C28.9721429,1.06642857 28.3178571,1.24571429 28.0257143,1.76 C27.7335714,2.27428571 27.9128571,2.92857143 28.4271429,3.22142857 C31.2507143,4.82785714 32.7735714,6.54357143 33.0642857,8.43714286 C32.72,8.36571429 32.3735714,8.265 32.0221429,8.13 C31.23,7.825 30.3928571,7.67071429 29.5357143,7.67071429 C25.75,7.67071429 22.67,10.715 22.67,14.4564286 C22.67,15.5121429 24.4964286,23.5064286 27.875,27.1364286 L15.58,27.1364286 C12.6257143,27.1364286 10.2228571,29.5392857 10.2228571,32.4935714 L10.2228571,35.1007143 C10.2228571,36.3 10.6235714,37.4035714 11.2907143,38.2971429 L6.02642857,38.2971429 C3.07285714,38.2971429 0.669285714,40.7007143 0.669285714,43.6542857 L0.669285714,46.2614286 C0.669285714,49.2157143 3.07285714,51.6185714 6.02642857,51.6185714 L11.3042857,51.6185714 C10.6292857,52.5157143 10.2228571,53.6264286 10.2228571,54.8328571 L10.2228571,57.44 C10.2228571,60.3935714 12.6257143,62.7971429 15.58,62.7971429 L18.13,62.7971429 L18.13,65.4807143 C18.13,65.8885714 18.3621429,66.2628571 18.7292857,66.4428571 C19.0942857,66.6228571 19.5321429,66.5792857 19.8557143,66.3292857 L22.3935714,64.3714286 L24.9314286,66.3292857 C25.1228571,66.4764286 25.3535714,66.5528571 25.5857143,66.5528571 C25.7471429,66.5528571 25.9085714,66.5164286 26.0578571,66.4435714 C26.425,66.2635714 26.6571429,65.89 26.6571429,65.4814286 L26.6571429,62.7978571 L58.2592857,62.7978571 C58.8507143,62.7978571 59.3307143,62.3178571 59.3307143,61.7264286 C59.3307143,61.135 58.8507143,60.6557143 58.2592857,60.6557143 Z M35.9292857,4.50785714 C36.4928571,3.53285714 37.4542857,2.87071429 38.4435714,2.75214286 C38.84,3.66571429 38.7507143,4.81071429 38.1771429,5.80428571 C37.6135714,6.77928571 36.6521429,7.44142857 35.6628571,7.56 C35.2664286,6.64642857 35.3557143,5.50214286 35.9292857,4.50785714 Z M29.535,9.81428571 C30.1285714,9.81428571 30.7071429,9.92071429 31.2528571,10.1307143 C32.1807143,10.4871429 33.1135714,10.6692857 34.0485714,10.6871429 C34.0557143,10.6878571 34.0628571,10.6907143 34.0707143,10.6914286 C34.1028571,10.6942857 34.1364286,10.6957143 34.1685714,10.6957143 C34.1757143,10.6957143 34.1828571,10.6914286 34.1907143,10.6914286 C35.1535714,10.6914286 36.1171429,10.5135714 37.0757143,10.155 C37.6464286,9.94142857 38.2478571,9.83285714 38.8628571,9.83285714 C41.6292857,9.83285714 43.8778571,12.045 43.8778571,14.7642857 C43.8778571,18.2464286 39.2571429,26.7814286 37.3728571,26.7814286 C37.0871429,26.7814286 36.8107143,26.7464286 36.5485714,26.6771429 C35.7907143,26.4778571 35.07,26.38 34.3457143,26.38 C33.62,26.38 32.9007143,26.4771429 32.1414286,26.6771429 C31.8792857,26.7464286 31.6028571,26.7814286 31.3185714,26.7814286 C28.0164286,26.7814286 24.8121429,16.1557143 24.8121429,14.4571429 C24.8121429,11.8971429 26.9307143,9.81428571 29.535,9.81428571 Z M21.6742857,38.795 C21.3464286,38.6092857 20.9457143,38.6092857 20.6178571,38.795 L18.5114286,39.9885714 L18.5114286,34.9514286 L23.7792857,34.9514286 L23.7792857,39.9878571 L21.6742857,38.795 Z M12.3657143,35.1021429 L12.3657143,32.495 C12.3657143,30.7228571 13.8078571,29.2807143 15.58,29.2807143 L53.5521429,29.2807143 C52.38,32.0835714 52.415,35.0642857 53.6592857,38.3164286 L48.7907143,38.3164286 C48.7335714,38.3064286 48.675,38.2985714 48.615,38.2985714 L25.9228571,38.2985714 L25.9228571,34.6821429 L35.5678571,34.6821429 C36.1592857,34.6821429 36.6392857,34.2028571 36.6392857,33.6107143 C36.6392857,33.0185714 36.1592857,32.5392857 35.5678571,32.5392857 L15.1357143,32.5392857 C14.5442857,32.5392857 14.0642857,33.0185714 14.0642857,33.6107143 C14.0642857,34.2028571 14.5442857,34.6821429 15.1357143,34.6821429 L16.3692857,34.6821429 L16.3692857,38.2985714 L15.4042857,38.2985714 C13.715,38.2042857 12.3657143,36.8135714 12.3657143,35.1021429 Z M2.81214286,46.2628571 L2.81214286,43.6557143 C2.81214286,41.8842857 4.25428571,40.4414286 6.02642857,40.4414286 L15.2292857,40.4414286 C15.3457143,40.45 15.4614286,40.4592857 15.58,40.4592857 L16.3685714,40.4592857 L16.3685714,41.8264286 C16.3685714,42.2071429 16.5707143,42.56 16.9,42.7521429 C17.0664286,42.8492857 17.2535714,42.8978571 17.44,42.8978571 C17.6221429,42.8978571 17.8042857,42.8521429 17.9678571,42.7585714 L21.1457143,40.9592857 L24.3221429,42.7585714 C24.6535714,42.9471429 25.0607143,42.9442857 25.3892857,42.7521429 C25.7192857,42.56 25.9214286,42.2071429 25.9214286,41.8264286 L25.9214286,40.4592857 L44.0728571,40.4592857 C42.8464286,43.2578571 42.8328571,46.2335714 44.0278571,49.4771429 L15.58,49.4771429 L6.02642857,49.4771429 C4.25428571,49.4771429 2.81214286,48.0357143 2.81214286,46.2628571 Z M24.5142857,63.3014286 L23.0478571,62.17 C22.855,62.0214286 22.6242857,61.9464286 22.3935714,61.9464286 C22.1628571,61.9464286 21.9321429,62.0207143 21.7392857,62.17 L20.2728571,63.3014286 L20.2728571,57.2235714 L24.5142857,57.2235714 L24.5142857,63.3014286 L24.5142857,63.3014286 Z M26.6571429,57.2235714 L30.2207143,57.2235714 C30.8121429,57.2235714 31.2921429,56.7435714 31.2921429,56.1521429 C31.2921429,55.56 30.8121429,55.0807143 30.2207143,55.0807143 L25.5857143,55.0807143 L19.2014286,55.0807143 L15.1357143,55.0807143 C14.5442857,55.0807143 14.0642857,55.56 14.0642857,56.1521429 C14.0642857,56.7435714 14.5442857,57.2235714 15.1357143,57.2235714 L18.13,57.2235714 L18.13,60.6557143 L15.58,60.6557143 C13.8078571,60.6557143 12.3657143,59.2135714 12.3657143,57.4414286 L12.3657143,54.8342857 C12.3657143,53.0628571 13.8078571,51.62 15.58,51.62 L48.705,51.62 L53.6335714,51.62 C52.4,54.4242857 52.3835714,57.4057143 53.5821429,60.6557143 L26.6571429,60.6557143 L26.6571429,57.2235714 Z" id="Shape"></path>
                    <path d="M37.7678571,13.43 C38.785,13.6692857 39.5435714,14.4921429 39.7,15.5257143 C39.7807143,16.0564286 40.2371429,16.4364286 40.7571429,16.4364286 C40.8114286,16.4364286 40.8642857,16.4328571 40.9192857,16.4242857 C41.505,16.3357143 41.9071429,15.79 41.8192857,15.2042857 C41.5307143,13.3 40.1328571,11.785 38.2592857,11.3442857 C37.68,11.2078571 37.1057143,11.5664286 36.97,12.1414286 C36.8342857,12.7178571 37.1914286,13.295 37.7678571,13.43 Z" id="Shape"></path>
                </g>
                <g id="noun_553920_cc" transform="translate(838.545455, 12.000000)">
                    <path d="M13.532,38.738 C13.3373333,38.738 13.1426667,38.6793333 12.976,38.5613333 C12.6506667,38.3333333 12.4973333,37.9293333 12.5913333,37.5413333 L13.246,34.842 L7.87333333,33.802 C7.44533333,33.72 7.126,33.3606667 7.092,32.9266667 C7.05933333,32.492 7.322,32.0873333 7.73266667,31.9406667 L21.808,26.9153333 C22.3106667,26.7373333 22.9613333,28.5586667 22.4586667,28.7373333 L11.716,32.5733333 L14.6093333,33.1333333 C14.8693333,33.1826667 15.096,33.338 15.2393333,33.5606667 C15.382,33.7826667 15.428,34.0546667 15.3653333,34.3113333 L15.0526667,35.6013333 L24.6933333,29.216 C25.1393333,28.9226667 26.2073333,30.5353333 25.7626667,30.83 L14.0666667,38.5773333 C13.904,38.6846667 13.718,38.738 13.532,38.738 Z" id="Shape"></path>
                    <path d="M27.9673333,39.63 C27.6853333,39.63 27.412,39.5066667 27.2253333,39.2826667 L24.804,36.3873333 L21.256,38.3173333 C20.8946667,38.514 20.4493333,38.4606667 20.1446667,38.1846667 C19.84,37.9106667 19.742,37.4726667 19.9006667,37.0933333 L22.1373333,31.752 L24.886,30.1986667 L22.7493333,35.302 L24.5753333,34.3086667 C24.9826667,34.0886667 25.4853333,34.1853333 25.7806667,34.5386667 L27.0973333,36.1126667 L27.2673333,31.718 C27.288,31.1826667 27.7586667,30.7673333 28.2713333,30.788 C28.806,30.808 29.2226667,31.258 29.202,31.792 L28.9353333,38.698 C28.92,39.0993333 28.66,39.4473333 28.2813333,39.5766667 C28.1773333,39.6133333 28.072,39.63 27.9673333,39.63 Z" id="Shape"></path>
                    <path d="M59.9406667,32.0486667 C59.6406667,29.4253333 58.2733333,27.342 55.9866667,26.0233333 C55.9853333,26.0226667 55.984,26.022 55.9813333,26.0206667 L39.7333333,16.6386667 L39.7346667,16.638 L33.1486667,12.8366667 L13.4193333,1.44466667 C9.67133333,-0.718 4.78466667,1.22466667 2.05,5.962 C-0.956,11.1693333 -0.628,16.2086667 2.84866667,18.218 L22.1966667,29.3893333 L22.1973333,29.3893333 L22.4973333,29.5626667 L45.416,42.796 C46.1533333,43.2226667 47.008,43.4366667 47.91,43.4366667 C48.728,43.4366667 49.586,43.2606667 50.4306667,42.9066667 C52.168,42.1826667 53.6893333,40.8086667 54.7106667,39.038 C56.8,35.422 56.57,32.4113333 54.0986667,30.982 C52.0786667,29.8153333 49.9106667,30.7853333 48.8133333,32.3466667 C47.7713333,33.8306667 47.5633333,36.0393333 49.448,37.632 C49.856,37.976 50.466,37.9246667 50.812,37.516 C51.1573333,37.1086667 51.1046667,36.498 50.6966667,36.1513333 C49.42,35.0746667 50.144,33.818 50.3966667,33.4586667 C50.9686667,32.644 52.0686667,32.046 53.13,32.658 C55.1806667,33.8426667 53.7473333,36.838 53.034,38.0693333 C52.2226667,39.4746667 51.0333333,40.558 49.686,41.12 C48.468,41.6293333 47.2626667,41.628 46.384,41.1186667 C43.478,39.438 44.3,34.9586667 46.2926667,31.5066667 C47.3993333,29.5886667 48.932,28.1646667 50.6066667,27.4973333 C52.1573333,26.88 53.724,26.952 55.018,27.7 C56.7526667,28.7 57.7886667,30.28 58.0166667,32.2693333 C58.242,34.2366667 57.662,36.5413333 56.3826667,38.7573333 C56.116,39.22 56.2746667,39.8113333 56.7366667,40.0786667 C57.1973333,40.3453333 57.7913333,40.188 58.0573333,39.7246667 C59.544,37.1526667 60.212,34.426 59.9406667,32.0486667 Z M26.4933333,29.6346667 L23.166,27.7133333 C20.2613333,26.0333333 21.0826667,21.5533333 23.0746667,18.1006667 C24.6506667,15.3706667 27.1006667,13.6746667 29.468,13.6746667 C30.304,13.6746667 31.0886667,13.8826667 31.8,14.2926667 L34.7026667,15.9686667 C32.2366667,16.5653333 29.9466667,18.4113333 28.362,21.1553333 C26.584,24.2393333 25.974,27.264 26.4933333,29.6346667 Z M3.726,6.93066667 C5.91,3.148 9.66,1.51266667 12.4513333,3.12066667 L27.7393333,11.948 C25.2726667,12.544 22.984,14.3893333 21.3993333,17.1333333 C19.616,20.222 19.0166667,23.2466667 19.5406667,25.6193333 L3.818,16.542 C0.911333333,14.8633333 1.73333333,10.382 3.726,6.93066667 Z M49.8906667,25.6993333 C47.814,26.5273333 45.9413333,28.246 44.618,30.5393333 C42.834,33.628 42.2346667,36.6526667 42.7593333,39.0253333 L30.1313333,31.736 L30.132,31.7346667 L30.1313333,31.7346667 L30.13,31.7346667 C27.2273333,30.054 28.048,25.576 30.0386667,22.124 C31.616,19.392 34.0666667,17.6953333 36.4333333,17.6953333 C37.2653333,17.6953333 38.048,17.9033333 38.7546667,18.3093333 L50.9713333,25.3626667 C50.6113333,25.4513333 50.2506667,25.556 49.8906667,25.6993333 Z" id="Shape"></path>
                </g>
                <g id="Bell" transform="translate(1032.000000, 0.000000)">
                    <path d="M25.7144196,14.2857589 C19.4125446,14.2857589 14.285625,19.4126786 14.285625,25.7145536 C14.285625,32.0164286 19.4125446,37.1444196 25.7144196,37.1444196 C32.0162946,37.1444196 37.1441518,32.0164286 37.1441518,25.7145536 C37.1441518,19.4126786 32.0162946,14.2857589 25.7144196,14.2857589 Z M25.7144196,34.2857143 C20.9882143,34.2857143 17.143125,30.440625 17.143125,25.7145536 C17.143125,20.9883482 20.9882143,17.1432589 25.7144196,17.1432589 C30.4404911,17.1432589 34.2857143,20.9883482 34.2857143,25.7145536 C34.2857143,30.440625 30.4404911,34.2857143 25.7144196,34.2857143 Z" id="Shape"></path>
                    <circle id="Oval" cx="25.7144196" cy="25.7145536" r="1.42821429"></circle>
                    <path d="M44.2840179,25.715625 L44.2840179,25.7145536 C44.2840179,15.474375 35.9555357,7.14375 25.7144196,7.14375 C24.9254464,7.14375 24.2862054,7.78299107 24.2862054,8.57196429 C24.2862054,9.3609375 24.9254464,10.0001786 25.7144196,10.0001786 C34.3778571,10.0001786 41.4297321,17.0501786 41.4297321,25.7145536 L41.4297321,25.715625 C41.4297321,26.5045982 42.0680357,27.1438393 42.856875,27.1438393 C43.6457143,27.1438393 44.2840179,26.5044643 44.2840179,25.715625 Z" id="Shape"></path>
                    <path d="M25.7144196,41.4298661 L25.7144196,41.4298661 C17.0500446,41.4298661 10.0000446,34.3789286 10.0000446,25.7145536 C10.0000446,24.9255804 9.36080357,24.2863393 8.57183036,24.2863393 C7.78285714,24.2863393 7.14361607,24.9255804 7.14361607,25.7145536 C7.14361607,35.9547321 15.4742411,44.2841518 25.7144196,44.2841518 L25.7144196,44.2841518 C26.5032589,44.2841518 27.1425,43.6458482 27.1425,42.8570089 C27.1425,42.0681696 26.5032589,41.4298661 25.7144196,41.4298661 Z" id="Shape"></path>
                    <path d="M59.9994643,32.8576339 C59.9994643,30.4940625 58.0783929,28.5719196 55.71375,28.5719196 C53.3492411,28.5719196 51.4281696,30.4940625 51.4281696,32.8576339 C51.4281696,34.4197768 52.269375,35.7883929 53.5208036,36.5375893 L51.5914286,46.1760268 L42.856875,50.5454464 L42.856875,50.0014286 C42.856875,49.2104464 42.2165625,48.57 41.4297321,48.57 L37.5166071,48.57 C39.8436161,47.3687946 41.9926339,45.7992857 43.8969643,43.8970982 C48.7540179,39.0403125 51.4281696,32.5834821 51.4281696,25.7145536 C51.4281696,18.8466964 48.7538839,12.3889286 43.8969643,7.531875 C39.0400446,2.67508929 32.5822768,0.000669642857 25.7144196,0.000669642857 C18.8454911,0.000669642857 12.3887946,2.67508929 7.53174107,7.531875 C2.67482143,12.3889286 0.000535714286,18.8465625 0.000535714286,25.7145536 C0.000535714286,32.5834821 2.67495536,39.0403125 7.53174107,43.8970982 C9.43607143,45.7992857 11.5861607,47.3687946 13.9110268,48.57 L10.0000446,48.57 C9.21107143,48.57 8.57183036,49.2103125 8.57183036,50.0014286 L8.57183036,57.1412946 C7.78285714,57.1412946 7.14361607,57.7816071 7.14361607,58.5727232 C7.14361607,59.3595536 7.78285714,59.9998661 8.57183036,59.9998661 L8.57183036,67.1441518 C8.57183036,67.9309821 9.21107143,68.5710268 10.0000446,68.5710268 L41.4297321,68.5710268 C42.2165625,68.5710268 42.856875,67.9309821 42.856875,67.1441518 L42.856875,59.9998661 C43.6458482,59.9998661 44.2840179,59.3595536 44.2840179,58.5727232 C44.2840179,57.7817411 43.6457143,57.1412946 42.856875,57.1412946 L42.856875,53.7389732 L53.4957589,48.4194643 C53.8891071,48.2227232 54.1715625,47.8544196 54.2574107,47.4233036 L56.3228571,37.0984821 C58.3986161,36.8011607 59.9994643,35.0140179 59.9994643,32.8576339 Z M9.5521875,41.8777232 C5.23526786,37.5587946 2.85803571,31.8196875 2.85803571,25.7145536 C2.85803571,19.6094196 5.23526786,13.869375 9.5521875,9.55232143 C13.8691071,5.23526786 19.6091518,2.85816964 25.7144196,2.85816964 C31.8195536,2.85816964 37.5585268,5.23540179 41.8775893,9.55232143 C46.1926339,13.8692411 48.5698661,19.6094196 48.5698661,25.7145536 C48.5698661,31.8196875 46.1926339,37.5587946 41.8775893,41.8777232 C37.5585268,46.1927679 31.8195536,48.57 25.7144196,48.57 C19.6091518,48.5698661 13.8692411,46.1926339 9.5521875,41.8777232 Z M39.9984375,65.7124554 L11.4293304,65.7124554 L11.4293304,59.9995982 L15.7149107,59.9995982 C15.7149107,60.7885714 16.3541518,61.4267411 17.143125,61.4267411 C17.9320982,61.4267411 18.5713393,60.7884375 18.5713393,59.9995982 L21.4287054,59.9995982 C21.4287054,60.7885714 22.0679464,61.4267411 22.8569196,61.4267411 C23.6458929,61.4267411 24.2862054,60.7884375 24.2862054,59.9995982 L27.1425,59.9995982 C27.1425,60.7885714 27.7828125,61.4267411 28.5717857,61.4267411 C29.3607589,61.4267411 30,60.7885714 30,59.9995982 L32.8585714,59.9995982 C32.8585714,60.7885714 33.496875,61.4267411 34.2857143,61.4267411 C35.0745536,61.4267411 35.7128571,60.7884375 35.7128571,59.9995982 L39.9984375,59.9995982 L39.9984375,65.7124554 L39.9984375,65.7124554 Z M35.7128571,57.1410268 C35.7128571,56.3541964 35.0745536,55.7138839 34.2857143,55.7138839 C33.496875,55.7138839 32.8585714,56.3541964 32.8585714,57.1410268 L30,57.1410268 C30,56.3541964 29.3607589,55.7138839 28.5717857,55.7138839 C27.7828125,55.7138839 27.1425,56.3541964 27.1425,57.1410268 L24.2862054,57.1410268 C24.2862054,56.3541964 23.6458929,55.7138839 22.8569196,55.7138839 C22.0679464,55.7138839 21.4287054,56.3541964 21.4287054,57.1410268 L18.5713393,57.1410268 C18.5713393,56.3541964 17.9320982,55.7138839 17.143125,55.7138839 C16.3541518,55.7138839 15.7149107,56.3541964 15.7149107,57.1410268 L11.4293304,57.1410268 L11.4293304,51.4284375 L39.9984375,51.4284375 L39.9984375,57.1410268 L35.7128571,57.1410268 Z M55.71375,34.2857143 C54.9269196,34.2857143 54.2866071,33.6455357 54.2866071,32.8576339 C54.2866071,32.0697321 54.9269196,31.4283482 55.71375,31.4283482 C56.5005804,31.4283482 57.1408929,32.0697321 57.1408929,32.8576339 C57.1408929,33.6455357 56.5005804,34.2857143 55.71375,34.2857143 Z" id="Shape"></path>
                </g>
            </g>
        </g>
    </g>
</svg>